<svg xmlns="http://www.w3.org/2000/svg" width="100" height="100" viewBox="0 0 100 100">
  <g id="Group_56447" data-name="Group 56447" transform="translate(-697 -1216)">
    <rect id="Rectangle_9178" data-name="Rectangle 9178" width="100" height="100" rx="5" transform="translate(697 1216)" fill="#f4f6fc"/>
    <g id="product" transform="translate(718.891 1239.497)">
      <path id="Path_164110" data-name="Path 164110" d="M280.974,57.052a4.287,4.287,0,0,0-3.871,4.476l.171,7.01a5.382,5.382,0,0,0-4.325,3.039l-2.562,5.379a6.162,6.162,0,0,1-1.7,2.147l-.532.427a10.814,10.814,0,0,0-4.058,8.948l-1.047-.5a.951.951,0,0,0-1.268.45l-2.808,5.9a.952.952,0,0,0,.45,1.268l12.943,6.164a.95.95,0,0,0,1.268-.45l2.809-5.9a.951.951,0,0,0-.45-1.268l-.552-.263-.138-1.845a2.786,2.786,0,0,1,.633-1.991l6.7-8.11q.02-.024.039-.05a11.12,11.12,0,0,0,2.079-6.621,1.008,1.008,0,0,0-.012-.135L282.006,57.85a.952.952,0,0,0-1.032-.8Zm-8.648,42.579L261.1,94.285l1.99-4.179,11.224,5.346Zm8.825-18.885-6.681,8.085a4.681,4.681,0,0,0-1.064,3.345l.057.761-7.357-3.5a8.923,8.923,0,0,1,3.24-8.42l.532-.427a8.077,8.077,0,0,0,2.228-2.813l2.561-5.379a3.485,3.485,0,0,1,3.719-1.934l-3.744,7.862a.951.951,0,0,0,1.718.818l4.21-8.841a.952.952,0,0,0-.45-1.268,5.429,5.429,0,0,0-.938-.343l-.176-7.219a.217.217,0,0,0,0-.025,2.387,2.387,0,0,1,1.289-2.245l2.561,16.155a9.207,9.207,0,0,1-1.7,5.39Zm0,0" transform="translate(-228.092 -50.066)" fill="#105185" stroke="#105185" stroke-width="0.2"/>
      <path id="Path_164111" data-name="Path 164111" d="M2.118,81.933l6.7,8.11a2.787,2.787,0,0,1,.633,1.991L9.316,93.88l-.552.263a.951.951,0,0,0-.45,1.268l2.809,5.9a.951.951,0,0,0,1.268.45l12.942-6.164a.952.952,0,0,0,.45-1.268l-2.809-5.9a.951.951,0,0,0-1.268-.45l-1.047.5A10.815,10.815,0,0,0,16.6,79.529l-.532-.427a6.161,6.161,0,0,1-1.7-2.146l-2.562-5.379a5.382,5.382,0,0,0-4.325-3.039l.171-7.01a4.287,4.287,0,0,0-3.871-4.476.952.952,0,0,0-1.032.8L.012,75.127A.937.937,0,0,0,0,75.262a11.12,11.12,0,0,0,2.079,6.621q.019.026.039.05ZM23.655,94.286,12.431,99.631l-1.99-4.179,11.224-5.346ZM4.464,59.2a2.388,2.388,0,0,1,1.289,2.245c0,.008,0,.017,0,.025L5.575,68.69a5.358,5.358,0,0,0-.939.343.951.951,0,0,0-.45,1.268L8.4,79.142a.951.951,0,0,0,1.718-.818L6.371,70.462A3.483,3.483,0,0,1,10.09,72.4l2.562,5.379a8.076,8.076,0,0,0,2.227,2.813l.532.427a8.923,8.923,0,0,1,3.24,8.42l-7.357,3.5.057-.761a4.683,4.683,0,0,0-1.064-3.345L3.606,80.746a9.206,9.206,0,0,1-1.7-5.39Zm0,0" transform="translate(0 -50.066)" fill="#105185" stroke="#105185" stroke-width="0.2"/>
      <path id="Path_164112" data-name="Path 164112" d="M160.582,20.725a.956.956,0,0,0,.665-.906V4.738a.956.956,0,0,0-.665-.905L149.53.269a.956.956,0,0,0-.586,0L137.889,3.832a.957.957,0,0,0-.666.906V19.819a.957.957,0,0,0,.665.906l11.052,3.563a.969.969,0,0,0,.294.046.979.979,0,0,0,.3-.046Zm-10.4,1.351V8.994l9.158-2.95V19.127Zm-.951-19.9,7.95,2.564L149.235,7.3l-7.95-2.563Zm-10.109,3.87,9.158,2.95V22.077l-9.158-2.95Zm0,0" transform="translate(-120.903 0)" fill="#105185" stroke="#105185" stroke-width="0.2"/>
    </g>
  </g>
</svg>
