<svg xmlns="http://www.w3.org/2000/svg" width="227.157" height="75.2" viewBox="0 0 227.157 75.2">
  <g id="Group_55734" data-name="Group 55734" transform="translate(-8581.324 -2147.444)">
    <g id="Group_53487" data-name="Group 53487" transform="translate(8581.324 2147.444)">
      <g id="Group_7" data-name="Group 7" transform="translate(18.441 67.154)">
        <path id="Path_211" data-name="Path 211" d="M3722.552,2817.776v-.174a.537.537,0,0,0,.3-.136.458.458,0,0,0,.073-.29v-6.541a.476.476,0,0,0-.075-.3.566.566,0,0,0-.3-.148v-.173h1.845v.173a.551.551,0,0,0-.3.148.465.465,0,0,0-.075.3v6.541a.476.476,0,0,0,.069.29.55.55,0,0,0,.3.136v.174Z" transform="translate(-3722.552 -2810.018)" fill="#f47421"/>
        <path id="Path_212" data-name="Path 212" d="M3728.771,2817.264v-.144a.453.453,0,0,0,.269-.112.356.356,0,0,0,.077-.25v-5.385a.338.338,0,0,0-.081-.243.391.391,0,0,0-.258-.1l-.007-.145h2.134v.145a.564.564,0,0,0-.281.108.252.252,0,0,0-.1.2.286.286,0,0,0,.014.076.421.421,0,0,0,.03.069l2.267,3.687v-3.8a.315.315,0,0,0-.092-.237.514.514,0,0,0-.291-.1l-.008-.145h1.63l-.007.145a.426.426,0,0,0-.255.1.349.349,0,0,0-.083.251v5.385a.338.338,0,0,0,.085.25.408.408,0,0,0,.261.1v.144h-1.615l.009-.151a.467.467,0,0,0,.222-.07.156.156,0,0,0,.061-.133c0-.023,0-.044,0-.061l-.012-.047-2.729-4.437v4.408a.329.329,0,0,0,.076.242.457.457,0,0,0,.27.1v.151Z" transform="translate(-3718.899 -2809.506)" fill="#f47421"/>
        <path id="Path_213" data-name="Path 213" d="M3742.134,2816.013l.217.145a3.3,3.3,0,0,1-1.094.973,2.8,2.8,0,0,1-1.354.331,2.728,2.728,0,0,1-2.126-.934,3.428,3.428,0,0,1-.837-2.38,3.476,3.476,0,0,1,.843-2.407,2.732,2.732,0,0,1,2.133-.942,2.924,2.924,0,0,1,1.319.333,4.512,4.512,0,0,0,.743.335.376.376,0,0,0,.1-.017c.043-.014.094-.033.147-.055l.142.1-1.007,1.322-.128-.11.009-.047a.527.527,0,0,0,0-.077.751.751,0,0,0-.392-.625,1.661,1.661,0,0,0-.952-.265,1.685,1.685,0,0,0-1.383.68,2.753,2.753,0,0,0-.539,1.757,2.707,2.707,0,0,0,.543,1.769,1.766,1.766,0,0,0,1.45.669,1.922,1.922,0,0,0,.651-.106,1.548,1.548,0,0,0,.53-.334v-1.118h-1.073a.278.278,0,0,0-.217.1.57.57,0,0,0-.124.278l-.172.006v-1.535h.165a.416.416,0,0,0,.119.236.355.355,0,0,0,.245.082h2.383v.169a.557.557,0,0,0-.262.138.323.323,0,0,0-.084.235Z" transform="translate(-3714.097 -2809.56)" fill="#f47421"/>
        <path id="Path_214" data-name="Path 214" d="M3745.162,2817.392v-.173a.5.5,0,0,0,.284-.138.521.521,0,0,0,.062-.3v-5.16a.511.511,0,0,0-.062-.294.569.569,0,0,0-.284-.14v-.173h4.266a.284.284,0,0,0,.216-.079.5.5,0,0,0,.1-.265h.172v1.5h-.172a.433.433,0,0,0-.108-.228.325.325,0,0,0-.225-.06h-2.869v1.788h2.078a.285.285,0,0,0,.216-.081.505.505,0,0,0,.1-.266h.172v1.5h-.172a.422.422,0,0,0-.1-.229.355.355,0,0,0-.23-.061h-2.063v1.963h2.938a.32.32,0,0,0,.241-.089.434.434,0,0,0,.111-.258h.173v1.529h-.173a.418.418,0,0,0-.106-.229.386.386,0,0,0-.246-.059Z" transform="translate(-3709.266 -2809.634)" fill="#f47421"/>
        <path id="Path_215" data-name="Path 215" d="M3753.079,2817.264v-.144a.453.453,0,0,0,.269-.112.361.361,0,0,0,.077-.25v-5.385a.335.335,0,0,0-.081-.243.4.4,0,0,0-.258-.1l-.007-.145h2.134v.145a.561.561,0,0,0-.281.108.247.247,0,0,0-.095.2.22.22,0,0,0,.013.076.393.393,0,0,0,.029.069l2.267,3.687v-3.8a.321.321,0,0,0-.09-.237.513.513,0,0,0-.292-.1l-.007-.145h1.629l0,.145a.435.435,0,0,0-.258.1.344.344,0,0,0-.083.251v5.385a.327.327,0,0,0,.087.25.4.4,0,0,0,.258.1v.144h-1.613l0-.151a.481.481,0,0,0,.226-.07.155.155,0,0,0,.061-.133.359.359,0,0,0-.005-.061.157.157,0,0,0-.011-.047l-2.729-4.437v4.408a.321.321,0,0,0,.078.242.454.454,0,0,0,.267.1v.151Z" transform="translate(-3704.615 -2809.506)" fill="#f47421"/>
        <path id="Path_216" data-name="Path 216" d="M3761.395,2817.264v-.174a.584.584,0,0,0,.3-.141.46.46,0,0,0,.07-.286v-5.173a.471.471,0,0,0-.07-.289.635.635,0,0,0-.3-.14v-.172h1.73v.172a.556.556,0,0,0-.277.14.475.475,0,0,0-.067.289v5.173a.464.464,0,0,0,.067.286.512.512,0,0,0,.277.141v.174Z" transform="translate(-3699.728 -2809.506)" fill="#f47421"/>
        <path id="Path_217" data-name="Path 217" d="M3767.336,2814.142a3.491,3.491,0,0,1,.83-2.4,2.87,2.87,0,0,1,4.248,0,3.851,3.851,0,0,1,0,4.785,2.884,2.884,0,0,1-4.252,0A3.453,3.453,0,0,1,3767.336,2814.142Zm1.037-.026a2.791,2.791,0,0,0,.537,1.767,1.716,1.716,0,0,0,2.744,0,3.231,3.231,0,0,0,0-3.537,1.71,1.71,0,0,0-2.74.005A2.77,2.77,0,0,0,3768.373,2814.115Z" transform="translate(-3696.238 -2809.56)" fill="#f47421"/>
        <path id="Path_218" data-name="Path 218" d="M3776.2,2811.49a.435.435,0,0,0-.082-.289.51.51,0,0,0-.293-.139v-.172h1.759v.172a.615.615,0,0,0-.3.142.437.437,0,0,0-.073.287v3.4a2.127,2.127,0,0,0,.3,1.317,1.277,1.277,0,0,0,1.03.366,1.217,1.217,0,0,0,1-.356,2.154,2.154,0,0,0,.294-1.328v-3.4a.435.435,0,0,0-.081-.289.515.515,0,0,0-.293-.139v-.172h1.76v.172a.634.634,0,0,0-.3.142.427.427,0,0,0-.076.287v3.523a2.544,2.544,0,0,1-.558,1.812,2.321,2.321,0,0,1-1.746.583,2.481,2.481,0,0,1-1.768-.546,2.237,2.237,0,0,1-.571-1.689Z" transform="translate(-3691.25 -2809.506)" fill="#f47421"/>
        <path id="Path_219" data-name="Path 219" d="M3784.931,2815.414l.148.1a.879.879,0,0,0-.026.116.323.323,0,0,0,0,.064.728.728,0,0,0,.436.621,2.179,2.179,0,0,0,1.1.253,1.805,1.805,0,0,0,1.039-.265.824.824,0,0,0,.381-.717.779.779,0,0,0-.276-.629,2.594,2.594,0,0,0-.984-.417c-.04-.007-.1-.024-.189-.049q-2.388-.613-2.387-1.909a1.554,1.554,0,0,1,.647-1.281,2.647,2.647,0,0,1,1.681-.5,4.2,4.2,0,0,1,1.757.385,1.021,1.021,0,0,0,.254.086.282.282,0,0,0,.133-.043,1.251,1.251,0,0,0,.193-.146l.151.088-.835,1.445-.145-.092a.562.562,0,0,1,.019-.075.338.338,0,0,0,.012-.068c0-.207-.145-.381-.426-.527a2.3,2.3,0,0,0-1.054-.217,1.978,1.978,0,0,0-1.042.226.719.719,0,0,0-.363.649c0,.416.529.759,1.594,1.027.156.039.282.069.374.092a3.21,3.21,0,0,1,1.44.725,1.586,1.586,0,0,1,.456,1.169,1.711,1.711,0,0,1-.655,1.417,2.773,2.773,0,0,1-1.777.521,4.732,4.732,0,0,1-1.854-.4,1.233,1.233,0,0,0-.3-.1.284.284,0,0,0-.131.042,1.368,1.368,0,0,0-.179.136l-.156-.087Z" transform="translate(-3686.464 -2809.56)" fill="#f47421"/>
        <path id="Path_220" data-name="Path 220" d="M3798.468,2817.776v-.174a.548.548,0,0,0,.3-.136.461.461,0,0,0,.069-.29v-6.541a.471.471,0,0,0-.074-.3.552.552,0,0,0-.3-.148v-.173h1.844v.173a.549.549,0,0,0-.3.148.471.471,0,0,0-.075.3v6.541a.463.463,0,0,0,.072.29.537.537,0,0,0,.3.136v.174Z" transform="translate(-3677.945 -2810.018)" fill="#f47421"/>
        <path id="Path_221" data-name="Path 221" d="M3804.684,2817.264v-.144a.464.464,0,0,0,.27-.112.363.363,0,0,0,.077-.25v-5.385a.338.338,0,0,0-.081-.243.392.392,0,0,0-.259-.1l-.007-.145h2.136v.145a.568.568,0,0,0-.282.108.253.253,0,0,0-.1.2.278.278,0,0,0,.014.076.3.3,0,0,0,.031.069l2.266,3.687v-3.8a.31.31,0,0,0-.091-.237.52.52,0,0,0-.291-.1l-.006-.145h1.628l-.007.145a.434.434,0,0,0-.256.1.347.347,0,0,0-.082.251v5.385a.337.337,0,0,0,.085.25.4.4,0,0,0,.26.1v.144h-1.615l.007-.151a.482.482,0,0,0,.226-.07.156.156,0,0,0,.06-.133c0-.023,0-.044,0-.061l-.011-.047-2.729-4.437v4.408a.322.322,0,0,0,.078.242.455.455,0,0,0,.27.1v.151Z" transform="translate(-3674.291 -2809.506)" fill="#f47421"/>
        <path id="Path_222" data-name="Path 222" d="M3813.785,2815.414l.146.1a.675.675,0,0,0-.027.116.34.34,0,0,0,0,.064.726.726,0,0,0,.437.621,2.176,2.176,0,0,0,1.1.253,1.8,1.8,0,0,0,1.039-.265.825.825,0,0,0,.383-.717.784.784,0,0,0-.278-.629,2.59,2.59,0,0,0-.984-.417,1.906,1.906,0,0,1-.187-.049q-2.39-.613-2.388-1.909a1.555,1.555,0,0,1,.647-1.281,2.649,2.649,0,0,1,1.681-.5,4.2,4.2,0,0,1,1.757.385.992.992,0,0,0,.254.086.288.288,0,0,0,.133-.043,1.355,1.355,0,0,0,.192-.146l.155.088-.837,1.445-.145-.092c.005-.024.011-.05.018-.075a.25.25,0,0,0,.012-.068c0-.207-.145-.381-.425-.527a2.316,2.316,0,0,0-1.053-.217,1.985,1.985,0,0,0-1.044.226.719.719,0,0,0-.363.649q0,.623,1.594,1.027c.158.039.282.069.373.092a3.191,3.191,0,0,1,1.44.725,1.573,1.573,0,0,1,.458,1.169,1.712,1.712,0,0,1-.656,1.417,2.769,2.769,0,0,1-1.777.521,4.717,4.717,0,0,1-1.852-.4,1.254,1.254,0,0,0-.3-.1.274.274,0,0,0-.131.042,1.171,1.171,0,0,0-.181.136l-.156-.087Z" transform="translate(-3669.512 -2809.56)" fill="#f47421"/>
        <path id="Path_223" data-name="Path 223" d="M3820.9,2817.264v-.174a.579.579,0,0,0,.3-.141.445.445,0,0,0,.072-.286v-5.173a.456.456,0,0,0-.072-.289.63.63,0,0,0-.3-.14v-.172h1.73v.172a.562.562,0,0,0-.278.14.475.475,0,0,0-.066.289v5.173a.463.463,0,0,0,.066.286.517.517,0,0,0,.278.141v.174Z" transform="translate(-3664.764 -2809.506)" fill="#f47421"/>
        <path id="Path_224" data-name="Path 224" d="M3832.032,2816.013l.217.145a3.328,3.328,0,0,1-1.093.973,2.8,2.8,0,0,1-1.355.331,2.736,2.736,0,0,1-2.127-.934,3.431,3.431,0,0,1-.834-2.38,3.472,3.472,0,0,1,.842-2.407,2.735,2.735,0,0,1,2.132-.942,2.938,2.938,0,0,1,1.321.333,4.594,4.594,0,0,0,.741.335.38.38,0,0,0,.1-.017c.044-.014.091-.033.146-.055l.143.1-1.006,1.322-.129-.11a.163.163,0,0,0,.009-.047.37.37,0,0,0,.005-.077.755.755,0,0,0-.394-.625,1.66,1.66,0,0,0-.952-.265,1.681,1.681,0,0,0-1.382.68,2.75,2.75,0,0,0-.538,1.757,2.716,2.716,0,0,0,.541,1.769,1.773,1.773,0,0,0,1.453.669,1.941,1.941,0,0,0,.651-.106,1.564,1.564,0,0,0,.527-.334v-1.118h-1.07a.285.285,0,0,0-.22.1.577.577,0,0,0-.124.278l-.174.006v-1.535h.165a.412.412,0,0,0,.122.236.356.356,0,0,0,.244.082h2.384v.169a.572.572,0,0,0-.263.138.324.324,0,0,0-.083.235Z" transform="translate(-3661.272 -2809.56)" fill="#f47421"/>
        <path id="Path_225" data-name="Path 225" d="M3836.446,2816.664a.464.464,0,0,0,.067.292.487.487,0,0,0,.28.134v.174h-1.732v-.174a.488.488,0,0,0,.285-.134.509.509,0,0,0,.063-.292v-5.173a.494.494,0,0,0-.063-.289.55.55,0,0,0-.285-.139v-.172h1.732v.172a.551.551,0,0,0-.28.139.451.451,0,0,0-.067.289v2.052h2.74v-2.052a.467.467,0,0,0-.067-.287.558.558,0,0,0-.279-.142v-.172h1.7v.172a.558.558,0,0,0-.281.139.457.457,0,0,0-.066.289v5.173a.471.471,0,0,0,.066.292.493.493,0,0,0,.281.134v.174h-1.7v-.174a.536.536,0,0,0,.279-.141.462.462,0,0,0,.067-.286v-2.228h-2.74Z" transform="translate(-3656.44 -2809.506)" fill="#f47421"/>
        <path id="Path_226" data-name="Path 226" d="M3844.593,2817.392v-.173a.561.561,0,0,0,.3-.146.446.446,0,0,0,.072-.282v-4.909h-1.348a.456.456,0,0,0-.289.067.538.538,0,0,0-.152.279H3843v-1.558h.174a.558.558,0,0,0,.138.283.529.529,0,0,0,.3.062h3.706a.5.5,0,0,0,.286-.062.617.617,0,0,0,.153-.283h.172v1.558h-.177a.562.562,0,0,0-.15-.279.443.443,0,0,0-.283-.067h-1.32v4.909a.462.462,0,0,0,.07.29.545.545,0,0,0,.3.138v.173Z" transform="translate(-3651.773 -2809.634)" fill="#f47421"/>
        <path id="Path_227" data-name="Path 227" d="M3851.405,2815.414l.146.1a.566.566,0,0,0-.025.116.424.424,0,0,0-.005.064.73.73,0,0,0,.437.621,2.181,2.181,0,0,0,1.1.253,1.8,1.8,0,0,0,1.039-.265.823.823,0,0,0,.381-.717.779.779,0,0,0-.278-.629,2.582,2.582,0,0,0-.984-.417c-.039-.007-.1-.024-.188-.049q-2.385-.613-2.386-1.909a1.553,1.553,0,0,1,.646-1.281,2.655,2.655,0,0,1,1.681-.5,4.2,4.2,0,0,1,1.758.385,1,1,0,0,0,.254.086.291.291,0,0,0,.134-.043,1.241,1.241,0,0,0,.19-.146l.154.088-.835,1.445-.146-.092c.005-.024.012-.05.02-.075a.347.347,0,0,0,.009-.068c0-.207-.141-.381-.426-.527a2.3,2.3,0,0,0-1.052-.217,1.977,1.977,0,0,0-1.042.226.72.72,0,0,0-.364.649q0,.623,1.593,1.027c.158.039.284.069.376.092a3.215,3.215,0,0,1,1.44.725,1.585,1.585,0,0,1,.456,1.169,1.711,1.711,0,0,1-.655,1.417,2.766,2.766,0,0,1-1.776.521,4.722,4.722,0,0,1-1.852-.4,1.236,1.236,0,0,0-.3-.1.271.271,0,0,0-.13.042,1.36,1.36,0,0,0-.182.136l-.155-.087Z" transform="translate(-3647.406 -2809.56)" fill="#f47421"/>
      </g>
      <path id="Path_228" data-name="Path 228" d="M3778.852,2786.766h10.192v31.959h4.319v-31.959h10.1v-4.059h-24.616Z" transform="translate(-3671.028 -2758.912)" fill="#4a8b2c"/>
      <g id="Group_8" data-name="Group 8" transform="translate(139.562 23.795)">
        <path id="Subtraction_2" data-name="Subtraction 2" d="M4.146,36.018H0V0H8.427a25.235,25.235,0,0,1,5.332.407A7.908,7.908,0,0,1,16.738,1.8a8.262,8.262,0,0,1,2.5,3.356,11.832,11.832,0,0,1,.893,4.658c0,2.936-.837,5.2-2.487,6.723s-4.1,2.3-7.284,2.3H4.146V36.018Zm0-32.39V15.633h3.27c3.355,0,5.632-.432,6.769-1.285s1.71-2.366,1.71-4.5c0-2.292-.592-3.92-1.76-4.838S10.7,3.628,7.416,3.628Z" fill="#4a8b2c"/>
      </g>
      <path id="Path_231" data-name="Path 231" d="M3835.737,2819.251l1.107-2.746c-1.461.962-2.945,1.883-4.452,2.746Zm11.68-37.438-12.489,28.655c2.105-1.356,4.066-2.63,5.9-3.837l1.108-2.743h.015l5.465-12.622,3.563,8.547c1.191-.821,2.283-1.589,3.3-2.308Zm8.368,19.131c-.981.959-2.017,1.947-3.1,2.954l2.031,4.876,4.432,10.477h4.647Z" transform="translate(-3639.571 -2759.438)" fill="#4a8b2c"/>
      <path id="Path_232" data-name="Path 232" d="M3825,2817.656v-34.949h-4.318v35.458A26.812,26.812,0,0,0,3825,2817.656Z" transform="translate(-3646.451 -2758.912)" fill="#4a8b2c"/>
      <path id="Path_233" data-name="Path 233" d="M3807.446,2799.787s11.512,30.905,44.544,11.512c20.858-12.247,32.509-25.689,32.509-25.689,2.562-3.287-54,67.236-82.5,14.177Z" transform="translate(-3657.426 -2757.271)" fill="#4a8b2c"/>
      <path id="Path_234" data-name="Path 234" d="M3818.2,2818.88h-6.891s-44.065-66.525-100.371-12.065C3710.937,2806.815,3760.171,2744.882,3818.2,2818.88Z" transform="translate(-3710.937 -2759.009)" fill="#f47421"/>
      <path id="Path_235" data-name="Path 235" d="M3747.746,2767.719l-9.732,23.22a51.7,51.7,0,0,1,6.943-1.423l2.79-6.7,2.512,6.272a50.421,50.421,0,0,1,6.584.254Zm12.816,30.465a51.019,51.019,0,0,0-7.108-1.123l5.5,13.733,6.812,16.738h7.14Zm-37.885,29.348h7.123l9.527-24.545h.023l2.3-5.523a52.02,52.02,0,0,0-7.043,1.609Z" transform="translate(-3704.038 -2767.719)" fill="#4a8b2c"/>
      <path id="Path_236" data-name="Path 236" d="M3756.262,2818.725h4.841l8.419-14.468c-.843-.816-2.045-1.954-3.151-2.918Zm21.048-36.018-7.2,12.567c1.025.8,2.228,1.759,3.307,2.662l8.774-15.229Z" transform="translate(-3684.304 -2758.912)" fill="#f47421"/>
    </g>
  </g>
</svg>
