<svg id="Component_9_3" data-name="Component 9 – 3" xmlns="http://www.w3.org/2000/svg" width="50" height="50" viewBox="0 0 50 50">
  <g id="Ellipse_6" data-name="Ellipse 6" fill="none" stroke="#1f5b8b" stroke-width="1">
    <circle cx="25" cy="25" r="25" stroke="none"/>
    <circle cx="25" cy="25" r="24.5" fill="none"/>
  </g>
  <g id="home_6_" data-name="home (6)" transform="translate(12 -4.017)">
    <path id="Path_164076" data-name="Path 164076" d="M60.171,207.85H42.4a2.407,2.407,0,0,1-2.4-2.4V192.8a.836.836,0,0,1,1.672,0v12.647a.732.732,0,0,0,.732.732H60.171a.732.732,0,0,0,.732-.732V192.8a.836.836,0,0,1,1.672,0v12.647A2.407,2.407,0,0,1,60.171,207.85Z" transform="translate(-37.91 -166.752)" fill="#1f5b8b"/>
    <path id="Path_164077" data-name="Path 164077" d="M25.92,28.974a.833.833,0,0,1-.591-.245l-10.4-10.4a2.2,2.2,0,0,0-3.1,0l-10.4,10.4A.836.836,0,0,1,.245,27.546l10.4-10.4a3.871,3.871,0,0,1,5.469,0l10.4,10.4a.836.836,0,0,1-.591,1.427Z" transform="translate(0)" fill="#1f5b8b"/>
    <path id="Path_164078" data-name="Path 164078" d="M183.525,298.852h-6.689a.836.836,0,0,1-.836-.836V290.6a2.616,2.616,0,0,1,2.613-2.613h3.135a2.616,2.616,0,0,1,2.613,2.613v7.42A.836.836,0,0,1,183.525,298.852Zm-5.853-1.672h5.017V290.6a.942.942,0,0,0-.941-.941h-3.135a.942.942,0,0,0-.941.941Z" transform="translate(-166.803 -257.754)" fill="#1f5b8b"/>
  </g>
</svg>
