<svg xmlns="http://www.w3.org/2000/svg" width="100" height="100" viewBox="0 0 100 100">
  <g id="Group_56446" data-name="Group 56446" transform="translate(-697 -1000)">
    <rect id="Rectangle_9032" data-name="Rectangle 9032" width="100" height="100" rx="5" transform="translate(697 1000)" fill="#f4f6fc"/>
    <g id="Group_56440" data-name="Group 56440" transform="translate(3420 -671.323)">
      <g id="charity" transform="translate(-2701 1723.079)">
        <g id="Group_56435" data-name="Group 56435" transform="translate(0 0)">
          <g id="Group_56434" data-name="Group 56434">
            <path id="Path_164100" data-name="Path 164100" d="M55.818,233.938c-1.766-1.2-3.848-.858-5.691.206S37.7,244.256,37.7,244.256l-10.417,0a1.14,1.14,0,0,1-1.009-1.028,1.031,1.031,0,0,1,1.009-1.009h6.373c2.231,0,4.728-1.454,4.728-4.037,0-2.745-2.5-4.037-4.728-4.037-3.87,0-4.623.016-4.623.016a9.378,9.378,0,0,1-4.334-.741,11.953,11.953,0,0,0-5.463-1.3,11.665,11.665,0,0,0-8.368,3.428L0,246.256l12.112,12.112,4.037-4.037H36.594a8.311,8.311,0,0,0,5.519-2.1l13.842-15.528A1.769,1.769,0,0,0,55.818,233.938ZM40.69,250.792a6.286,6.286,0,0,1-4.1,1.518l-21.421,0-3.06,3.2-9.246-9.246,9.45-9.3a9.682,9.682,0,0,1,6.922-2.818,10.011,10.011,0,0,1,4.51,1.052,11.1,11.1,0,0,0,5.287.981s.773-.016,4.623-.016c.026,0,2.709.022,2.709,2.019,0,1.377-1.617,2.019-2.709,2.019H27.118a3.031,3.031,0,0,0,0,6.056l11.3,0s11.89-9.912,12.849-10.437a3.451,3.451,0,0,1,3.117-.386Z" transform="translate(0 -232.125)" fill="#015481" stroke="#015481" stroke-width="1"/>
          </g>
        </g>
      </g>
      <g id="hospital_2_" data-name="hospital (2)" transform="translate(-2676.33 1693.323)">
        <g id="Group_56439" data-name="Group 56439" transform="translate(0 0)">
          <g id="Group_56438" data-name="Group 56438">
            <path id="Path_164102" data-name="Path 164102" d="M95.743,79.87H89.207V73.334a.93.93,0,0,0-.934-.934H80.8a.93.93,0,0,0-.934.934V79.87H73.334a.93.93,0,0,0-.934.934v7.47a.93.93,0,0,0,.934.934H79.87v6.536a.93.93,0,0,0,.934.934h7.47a.93.93,0,0,0,.934-.934V89.207h6.536a.93.93,0,0,0,.934-.934V80.8A1,1,0,0,0,95.743,79.87Zm-.882,7.47H88.273a.93.93,0,0,0-.934.934v6.536h-5.6V88.273a.93.93,0,0,0-.934-.934H74.267v-5.6H80.8a.93.93,0,0,0,.934-.934V74.267h5.654V80.8a.93.93,0,0,0,.934.934h6.536Z" transform="translate(-72.4 -72.4)" fill="#015481" stroke="#015481" stroke-width="1"/>
          </g>
        </g>
      </g>
    </g>
  </g>
</svg>
