<?xml version="1.0" encoding="utf-8"?>
<!-- Generator: Adobe Illustrator 27.5.0, SVG Export Plug-In . SVG Version: 6.00 Build 0)  -->
<svg version="1.1" xmlns="http://www.w3.org/2000/svg" xmlns:xlink="http://www.w3.org/1999/xlink" x="0px" y="0px"
	 viewBox="0 0 750 500" style="enable-background:new 0 0 750 500;" xml:space="preserve">
<g id="BACKGROUND">
	<rect style="fill:#CADAF1;" width="750" height="500"/>
</g>
<g id="OBJECTS">
	<g>
		<path style="fill:none;stroke:#2E466C;stroke-width:2;stroke-linecap:round;stroke-miterlimit:10;" d="M442.711,171.622
			l-62.59-36.136c-5.863-3.385-13.087-3.385-18.951,0L161.753,250.621c-5.347,3.087-5.347,10.805,0,13.893l60.886,35.152"/>
		<path style="fill:none;stroke:#2E466C;stroke-width:2;stroke-linecap:round;stroke-miterlimit:10;" d="M359.587,378.733
			l86.242,49.792c5.863,3.385,13.087,3.385,18.95,0l199.419-115.134c5.347-3.087,5.347-10.805,0-13.893L579.66,250.69"/>
		<path style="fill:none;stroke:#FFFFFF;stroke-width:2;stroke-linecap:round;stroke-miterlimit:10;" d="M306.581,259.617
			l122.47,70.708c3.998,2.308,3.497,6.34-1.12,9.006l-136.688,78.803c-4.617,2.665-11.6,2.955-15.598,0.647l-122.47-70.708
			c-3.998-2.308-3.497-6.34,1.12-9.006l136.688-78.803C295.599,257.599,302.583,257.309,306.581,259.617z"/>
		<path style="fill:none;stroke:#FFFFFF;stroke-width:2;stroke-linecap:round;stroke-miterlimit:10;" d="M526.654,131.574
			l122.47,70.708c3.998,2.308,3.497,6.34-1.12,9.006l-136.689,78.803c-4.617,2.665-11.6,2.955-15.598,0.647l-122.47-70.708
			c-3.998-2.308-3.497-6.34,1.12-9.006l136.688-78.804C515.672,129.555,522.656,129.266,526.654,131.574z"/>
		<g>
			<g>
				<path style="fill:#FFFFFF;" d="M267.689,292.615c-0.7-0.404-1.24-0.424-1.581-0.115l-4.481,2.569l-0.143,0.165l-7.091-3.999
					c-0.496-0.287-0.883-0.311-1.137-0.111l-4.479,2.586l13.881,9.192l4.485-2.591v-1.68l1.046,1.194l4.485-2.591v-1.742
					L267.689,292.615z"/>
				<path style="fill:#607ACE;" d="M263.204,295.206c-1.23-0.71-1.987-0.273-1.987,1.147v4.002l-11.309-6.53
					c-0.907-0.524-1.466-0.201-1.466,0.846v0.06l14.217,8.169v-5.477c0-0.514,0.276-0.671,0.723-0.41l4.808,2.81v-1.741
					L263.204,295.206z"/>
			</g>
			<g>
				<path style="fill:#FFFFFF;" d="M249.335,303.22c-0.7-0.404-1.24-0.424-1.581-0.115l-4.481,2.569l-0.143,0.165l-7.091-3.999
					c-0.496-0.287-0.883-0.311-1.137-0.111l-4.479,2.586l13.881,9.192l4.485-2.591v-1.68l1.046,1.194l4.485-2.591v-1.741
					L249.335,303.22z"/>
				<path style="fill:#607ACE;" d="M244.85,305.812c-1.23-0.71-1.987-0.273-1.987,1.147v4.002l-11.309-6.53
					c-0.907-0.524-1.466-0.201-1.466,0.846v0.06l14.217,8.169v-5.477c0-0.514,0.276-0.671,0.723-0.41l4.808,2.81v-1.741
					L244.85,305.812z"/>
			</g>
			<g>
				<path style="fill:#FFFFFF;" d="M230.981,313.826c-0.7-0.404-1.24-0.424-1.581-0.115l-4.481,2.569l-0.143,0.165l-7.091-3.999
					c-0.496-0.287-0.883-0.311-1.137-0.111l-4.479,2.586l13.881,9.192l4.485-2.591v-1.68l1.046,1.194l4.485-2.591v-1.742
					L230.981,313.826z"/>
				<path style="fill:#607ACE;" d="M226.496,316.417c-1.23-0.71-1.987-0.273-1.987,1.148v4.002l-11.31-6.529
					c-0.907-0.524-1.466-0.201-1.466,0.846v0.06l14.217,8.169v-5.477c0-0.514,0.276-0.671,0.723-0.41l4.808,2.81v-1.741
					L226.496,316.417z"/>
			</g>
			<g>
				<path style="fill:#FFFFFF;" d="M212.627,324.432c-0.7-0.404-1.24-0.424-1.581-0.115l-4.481,2.569l-0.143,0.165l-7.091-3.999
					c-0.496-0.286-0.883-0.311-1.137-0.111l-4.479,2.586l13.881,9.192l4.485-2.591v-1.68l1.046,1.194l4.485-2.591v-1.741
					L212.627,324.432z"/>
				<path style="fill:#607ACE;" d="M208.141,327.023c-1.23-0.71-1.987-0.273-1.987,1.147v4.002l-11.31-6.53
					c-0.907-0.524-1.466-0.201-1.466,0.846v0.06l14.217,8.169v-5.477c0-0.514,0.276-0.671,0.723-0.41l4.808,2.81v-1.741
					L208.141,327.023z"/>
			</g>
			<g>
				<path style="fill:#FFFFFF;" d="M345.229,305.812c0.7-0.404,1.24-0.424,1.581-0.115l4.481,2.569l0.143,0.165l7.091-3.999
					c0.496-0.287,0.883-0.311,1.137-0.111l4.479,2.586l-13.881,9.192l-4.485-2.591v-1.68l-1.046,1.194l-4.485-2.591v-1.742
					L345.229,305.812z"/>
				<path style="fill:#607ACE;" d="M349.715,308.404c1.23-0.71,1.987-0.273,1.987,1.148v4.002l11.31-6.53
					c0.907-0.524,1.466-0.201,1.466,0.846v0.06l-14.217,8.169v-5.477c0-0.514-0.276-0.671-0.722-0.41l-4.808,2.81v-1.741
					L349.715,308.404z"/>
			</g>
			<g>
				<path style="fill:#FFFFFF;" d="M326.875,295.207c0.7-0.404,1.24-0.424,1.581-0.115l4.481,2.569l0.143,0.165l7.091-3.999
					c0.496-0.287,0.883-0.311,1.137-0.111l4.479,2.586l-13.881,9.192l-4.485-2.591v-1.68l-1.046,1.194l-4.485-2.591v-1.741
					L326.875,295.207z"/>
				<path style="fill:#607ACE;" d="M331.36,297.798c1.23-0.71,1.987-0.273,1.987,1.147v4.002l11.31-6.53
					c0.907-0.524,1.466-0.201,1.466,0.846v0.06l-14.217,8.169v-5.477c0-0.514-0.276-0.671-0.723-0.41l-4.808,2.81v-1.742
					L331.36,297.798z"/>
			</g>
			<g>
				<path style="fill:#FFFFFF;" d="M308.521,284.601c0.7-0.404,1.24-0.424,1.581-0.115l4.481,2.569l0.143,0.165l7.091-3.999
					c0.496-0.287,0.883-0.311,1.137-0.111l4.479,2.586l-13.881,9.192l-4.485-2.591v-1.68l-1.046,1.194l-4.485-2.591v-1.741
					L308.521,284.601z"/>
				<path style="fill:#607ACE;" d="M313.006,287.192c1.23-0.71,1.987-0.273,1.987,1.148v4.002l11.31-6.53
					c0.907-0.524,1.466-0.201,1.466,0.847v0.06l-14.217,8.169v-5.477c0-0.514-0.276-0.671-0.723-0.41l-4.808,2.81v-1.741
					L313.006,287.192z"/>
			</g>
			<g>
				<path style="fill:#FFFFFF;" d="M286.044,282.009c-0.7-0.404-1.24-0.424-1.581-0.115l-4.481,2.569l-0.143,0.165l-7.091-3.999
					c-0.496-0.287-0.883-0.311-1.137-0.111l-4.479,2.586l13.881,9.192l4.485-2.591v-1.68l1.046,1.194l4.485-2.591v-1.741
					L286.044,282.009z"/>
				<path style="fill:#607ACE;" d="M281.559,284.6c-1.23-0.71-1.987-0.273-1.987,1.147v4.002l-11.31-6.53
					c-0.907-0.524-1.466-0.201-1.466,0.846v0.06l14.217,8.169v-5.477c0-0.514,0.276-0.671,0.723-0.41l4.808,2.81v-1.742
					L281.559,284.6z"/>
			</g>
			<g>
				<path style="fill:#FFFFFF;" d="M363.584,316.418c0.7-0.404,1.24-0.424,1.581-0.115l4.481,2.569l0.143,0.165l7.091-3.999
					c0.496-0.287,0.883-0.311,1.137-0.111l4.479,2.586l-13.881,9.192l-4.485-2.591v-1.68l-1.046,1.194l-4.485-2.591v-1.742
					L363.584,316.418z"/>
				<path style="fill:#607ACE;" d="M368.069,319.009c1.23-0.71,1.987-0.273,1.987,1.147v4.002l11.31-6.53
					c0.907-0.524,1.466-0.201,1.466,0.846v0.06l-14.217,8.169v-5.477c0-0.514-0.276-0.671-0.723-0.41l-4.808,2.81v-1.742
					L368.069,319.009z"/>
			</g>
			<g>
				<path style="fill:#2E466C;" d="M199.78,332.571l11.49-0.505l78.419-45.276c2.858-1.65,7.181-1.829,9.656-0.4l67.29,38.85
					l10.186-0.448v7.622c0.008,0.102,0.006,0.205,0,0.309v0.042l-0.002,0c-0.083,1.041-0.874,2.119-2.351,2.972l-87.545,50.544
					c-2.858,1.65-7.181,1.829-9.656,0.4l-75.816-43.772c-1.128-0.651-1.671-1.524-1.664-2.437l-0.007,0V332.571z"/>
				<path style="fill:#FAA226;" d="M299.344,278.253l75.816,43.772c2.475,1.429,2.165,3.925-0.693,5.575l-87.544,50.544
					c-2.858,1.65-7.181,1.829-9.656,0.4l-75.816-43.772c-2.475-1.429-2.165-3.925,0.693-5.575l87.544-50.544
					C292.546,277.003,296.869,276.824,299.344,278.253z"/>
				<path style="fill:#2E466C;" d="M215.461,325.136l9.454-0.415l64.528-37.255c2.352-1.358,5.909-1.505,7.946-0.329l55.37,31.968
					l8.381-0.368v6.272c0.006,0.084,0.005,0.169,0,0.254v0.035l-0.002,0c-0.068,0.857-0.719,1.744-1.934,2.446l-72.037,41.591
					c-2.352,1.358-5.909,1.505-7.946,0.329l-62.386-36.018c-0.928-0.536-1.375-1.254-1.37-2.006l-0.005,0V325.136z"/>
				<path style="fill:#FDDA5C;" d="M297.389,280.594l62.386,36.018c2.037,1.176,1.781,3.23-0.57,4.587l-72.037,41.591
					c-2.352,1.358-5.909,1.505-7.946,0.329l-62.386-36.018c-2.037-1.176-1.781-3.23,0.571-4.587l72.037-41.591
					C291.795,279.565,295.352,279.418,297.389,280.594z"/>
			</g>
			<g>
				<path style="fill:#FFFFFF;" d="M371.958,331.758l4.984,2.878c1.23,0.71,1.987,2.022,1.987,3.442v4.002l11.306,6.502
					c0.936,0.539,1.501,1.548,1.469,2.628l-4.48,2.588l-13.724-9.159v-5.904l-6.023-4.389L371.958,331.758z"/>
				<path style="fill:#FAA226;" d="M385.759,351.197l-11.309-6.53v-4.002c0-1.42-0.758-2.732-1.988-3.442l-4.984-2.878v1.742
					l4.808,2.742c0.447,0.255,0.723,0.73,0.723,1.244v5.477l14.217,8.247v-0.06C387.225,352.689,386.666,351.721,385.759,351.197z"
					/>
			</g>
			<g>
				<path style="fill:#FFFFFF;" d="M353.603,342.363l4.984,2.878c1.23,0.71,1.987,2.022,1.987,3.442v4.002l11.306,6.502
					c0.936,0.538,1.501,1.548,1.469,2.628l-4.48,2.588l-13.724-9.159v-5.904l-6.023-4.388L353.603,342.363z"/>
				<path style="fill:#607ACE;" d="M367.404,361.803l-11.309-6.53v-4.002c0-1.42-0.758-2.732-1.987-3.442l-4.984-2.878v1.741
					l4.808,2.742c0.447,0.255,0.723,0.73,0.723,1.244v5.477l14.217,8.247v-0.06C368.871,363.295,368.312,362.327,367.404,361.803z"
					/>
			</g>
			<g>
				<path style="fill:#FFFFFF;" d="M335.249,352.969l4.984,2.878c1.23,0.71,1.987,2.022,1.987,3.442v4.002l11.306,6.502
					c0.936,0.538,1.501,1.548,1.469,2.628l-4.48,2.588l-13.724-9.159v-5.904l-6.023-4.389L335.249,352.969z"/>
				<path style="fill:#607ACE;" d="M349.05,372.409l-11.31-6.53v-4.002c0-1.42-0.758-2.732-1.987-3.442l-4.984-2.878v1.742
					l4.808,2.742c0.447,0.255,0.723,0.73,0.723,1.244v5.477l14.217,8.247v-0.06C350.516,373.9,349.957,372.932,349.05,372.409z"/>
			</g>
			<g>
				<path style="fill:#FFFFFF;" d="M316.895,363.575l4.984,2.878c1.23,0.71,1.988,2.022,1.988,3.442v4.002l11.306,6.502
					c0.936,0.538,1.501,1.548,1.469,2.628l-4.48,2.588l-13.724-9.159v-5.904l-6.023-4.388L316.895,363.575z"/>
				<path style="fill:#607ACE;" d="M330.696,383.014l-11.31-6.53v-4.002c0-1.42-0.758-2.732-1.987-3.442l-4.984-2.878v1.742
					l4.808,2.742c0.447,0.255,0.723,0.73,0.723,1.244v5.477l14.217,8.247v-0.06C332.162,384.506,331.603,383.538,330.696,383.014z"
					/>
			</g>
			<g>
				<path style="fill:#FFFFFF;" d="M298.54,374.18l4.984,2.878c1.23,0.71,1.988,2.022,1.988,3.442v4.002l11.306,6.502
					c0.936,0.538,1.501,1.548,1.469,2.628l-4.48,2.588l-13.724-9.159v-5.904l-6.023-4.388L298.54,374.18z"/>
				<path style="fill:#607ACE;" d="M312.342,393.62l-11.309-6.53v-4.002c0-1.42-0.758-2.732-1.987-3.442l-4.984-2.878v1.741
					l4.808,2.742c0.447,0.255,0.723,0.73,0.723,1.244v5.477l14.217,8.247v-0.06C313.808,395.112,313.249,394.144,312.342,393.62z"/>
			</g>
			<g>
				<path style="fill:#FFFFFF;" d="M208.368,342.363l-4.984,2.878c-1.23,0.71-1.987,2.022-1.987,3.442v4.002l-11.306,6.502
					c-0.936,0.538-1.501,1.548-1.469,2.628l4.48,2.588l13.724-9.159v-5.904l6.023-4.388L208.368,342.363z"/>
				<path style="fill:#607ACE;" d="M194.566,361.803l11.31-6.53v-4.002c0-1.42,0.758-2.732,1.987-3.442l4.984-2.878v1.741
					l-4.808,2.742c-0.447,0.255-0.723,0.73-0.723,1.244v5.477l-14.217,8.247v-0.06C193.1,363.295,193.659,362.327,194.566,361.803z"
					/>
			</g>
			<g>
				<path style="fill:#FFFFFF;" d="M226.722,352.969l-4.984,2.878c-1.23,0.71-1.987,2.022-1.987,3.442v4.002l-11.306,6.502
					c-0.936,0.538-1.501,1.548-1.469,2.628l4.48,2.588l13.724-9.159v-5.904l6.023-4.389L226.722,352.969z"/>
				<path style="fill:#607ACE;" d="M212.921,372.409l11.31-6.53v-4.002c0-1.42,0.758-2.732,1.987-3.442l4.984-2.878v1.742
					l-4.808,2.742c-0.447,0.255-0.723,0.73-0.723,1.244v5.477l-14.217,8.247v-0.06C211.455,373.9,212.014,372.932,212.921,372.409z"
					/>
			</g>
			<g>
				<path style="fill:#FFFFFF;" d="M245.076,363.575l-4.984,2.878c-1.23,0.71-1.987,2.022-1.987,3.442v4.002l-11.306,6.502
					c-0.936,0.538-1.501,1.548-1.469,2.628l4.48,2.588l13.724-9.159v-5.904l6.023-4.388L245.076,363.575z"/>
				<path style="fill:#607ACE;" d="M231.275,383.014l11.309-6.53v-4.002c0-1.42,0.758-2.732,1.987-3.442l4.984-2.878v1.742
					l-4.808,2.742c-0.447,0.255-0.723,0.73-0.723,1.244v5.477l-14.217,8.247v-0.06C229.809,384.506,230.368,383.538,231.275,383.014
					z"/>
			</g>
			<path style="fill:#FFFFFF;" d="M263.431,374.18l-4.984,2.878c-1.23,0.71-1.987,2.022-1.987,3.442v4.002l-11.306,6.502
				c-0.936,0.538-1.501,1.548-1.469,2.628l4.48,2.588l13.724-9.159v-5.904l6.023-4.388L263.431,374.18z"/>
			<path style="fill:#607ACE;" d="M249.629,393.62l11.31-6.53v-4.002c0-1.42,0.758-2.732,1.987-3.442l4.984-2.878v1.741
				l-4.808,2.742c-0.447,0.255-0.723,0.73-0.723,1.244v5.477l-14.217,8.247v-0.06C248.163,395.112,248.722,394.144,249.629,393.62z"
				/>
			<path style="fill:#607ACE;" d="M385.759,351.197l-11.309-6.53v-4.002c0-1.42-0.758-2.732-1.988-3.442l-4.984-2.878v1.742
				l4.808,2.742c0.447,0.255,0.723,0.73,0.723,1.244v5.477l14.217,8.247v-0.06C387.225,352.689,386.666,351.721,385.759,351.197z"/>
		</g>
		<g>
			<path style="fill:#FBA074;" d="M489.728,142.223c0,0,23.234-29.763,62.598-18.818s51.077,49.733,50.501,67.783
				c-0.576,18.05-23.042,35.331-39.556,32.259C546.758,220.374,489.728,142.223,489.728,142.223z"/>
			<path style="fill:#EF651D;" d="M482.815,199.445c0,0,3.072,32.342,8.449,32.684c5.376,0.343,2.688-9.258,6.529-9.642
				c3.84-0.384,23.59,9.793,26.005-1.728C526.212,209.237,482.815,199.445,482.815,199.445z"/>
			<path style="fill:#FBA074;" d="M486.464,203.285c0,0-16.514-6.721-15.746-32.067c0.768-25.346,23.426-40.9,42.244-37.636
				c18.818,3.264,46.011,20.61,55.42,41.924c9.409,21.314,16.203,46.404-8.759,55.237
				C534.66,239.576,486.464,203.285,486.464,203.285z"/>
			
				<path style="fill:none;stroke:#EF651D;stroke-width:3.2323;stroke-linecap:round;stroke-linejoin:round;stroke-miterlimit:10;" d="
				M498.753,134.954c0,0,33.22-8.446,60.642,26.613c22.118,28.277,21.026,52.57,13.175,60.275"/>
			
				<path style="fill:none;stroke:#EF651D;stroke-width:3.2323;stroke-linecap:round;stroke-linejoin:round;stroke-miterlimit:10;" d="
				M533.508,125.133c-12.289,1.728-13.211,10.293-13.211,10.293s-16.666,1.301-22.553,8.86"/>
			
				<path style="fill:none;stroke:#EF651D;stroke-width:3.2323;stroke-linecap:round;stroke-linejoin:round;stroke-miterlimit:10;" d="
				M565.576,137.998c-13.808-0.227-19.288,10.141-19.288,10.141s-11.531-1.692-20.172,4.789"/>
			
				<path style="fill:none;stroke:#EF651D;stroke-width:3.2323;stroke-linecap:round;stroke-linejoin:round;stroke-miterlimit:10;" d="
				M589.194,172.395c-8.641-2.855-18.669,6.574-18.669,6.574s-11.718-3.628-18.63,3.671"/>
			
				<path style="fill:none;stroke:#EF651D;stroke-width:3.2323;stroke-linecap:round;stroke-linejoin:round;stroke-miterlimit:10;" d="
				M592.074,203.189c-7.489,6.625-14.561,6.35-14.561,6.35s-6.177,6.467-13.09,5.171"/>
			
				<path style="fill:none;stroke:#EF651D;stroke-width:3.2323;stroke-linecap:round;stroke-linejoin:round;stroke-miterlimit:10;" d="
				M528.516,156.816c0,0-2.688-5.953-11.521-5.377c-8.833,0.576-9.985,8.641-8.833,16.706"/>
			
				<path style="fill:none;stroke:#EF651D;stroke-width:3.2323;stroke-linecap:round;stroke-linejoin:round;stroke-miterlimit:10;" d="
				M590.058,163.153c0,0-3.312,10.369,3.168,16.994"/>
			
				<path style="fill:none;stroke:#EF651D;stroke-width:3.2323;stroke-linecap:round;stroke-linejoin:round;stroke-miterlimit:10;" d="
				M551.894,189.826v-7.297c0,0-6.673,4.224-15.121,1.536c-8.449-2.688-8.449-6.817-8.449-6.817"/>
			
				<path style="fill:none;stroke:#EF651D;stroke-width:3.2323;stroke-linecap:round;stroke-linejoin:round;stroke-miterlimit:10;" d="
				M507.79,159.773c0,0-5.197,2.612-16.334-2.189"/>
			
				<path style="fill:none;stroke:#EF651D;stroke-width:3.2323;stroke-linecap:round;stroke-linejoin:round;stroke-miterlimit:10;" d="
				M559.623,205.781c0,0-5.568,5.164-16.13,3.254c-10.561-1.91-12.865-7.863-12.865-7.863s-11.087-3.9-15.913,9.187"/>
			
				<path style="fill:none;stroke:#EF651D;stroke-width:3.2323;stroke-linecap:round;stroke-linejoin:round;stroke-miterlimit:10;" d="
				M543.493,209.035c0,0-5.501,13.334,6.913,18.444"/>
			
				<path style="fill:none;stroke:#EF651D;stroke-width:3.2323;stroke-linecap:round;stroke-linejoin:round;stroke-miterlimit:10;" d="
				M472.638,164.497c0,0,3.648,9.051,13.057,13.454c9.409,4.404,13.057,3.635,13.057,3.635"/>
			
				<path style="fill:none;stroke:#EF651D;stroke-width:3.2323;stroke-linecap:round;stroke-linejoin:round;stroke-miterlimit:10;" d="
				M559.623,178.484c0,0-16.706-4.578-9.217-16.291"/>
			
				<path style="fill:none;stroke:#EF651D;stroke-width:3.2323;stroke-linecap:round;stroke-linejoin:round;stroke-miterlimit:10;" d="
				M568.264,133.151c0,0-5.185,9.569,1.728,18.249"/>
			
				<path style="fill:none;stroke:#EF651D;stroke-width:3.2323;stroke-linecap:round;stroke-linejoin:round;stroke-miterlimit:10;" d="
				M598.795,175.058c0,0-9.391,6.913-7.576,16.514"/>
			
				<path style="fill:none;stroke:#EF651D;stroke-width:3.2323;stroke-linecap:round;stroke-linejoin:round;stroke-miterlimit:10;" d="
				M484.314,177.249c0,0-1.835,17.156,14.439,22.196"/>
			
				<path style="fill:none;stroke:#EF651D;stroke-width:3.2323;stroke-linecap:round;stroke-linejoin:round;stroke-miterlimit:10;" d="
				M556.117,139.737c0,0-4.327-10.381-13.78-7.956"/>
			
				<path style="fill:none;stroke:#EF651D;stroke-width:3.2323;stroke-linecap:round;stroke-linejoin:round;stroke-miterlimit:10;" d="
				M492.896,152.928c0,0-2.657,10.184-13.153,3.6"/>
			
				<path style="fill:none;stroke:#EF651D;stroke-width:3.2323;stroke-linecap:round;stroke-linejoin:round;stroke-miterlimit:10;" d="
				M512.434,183.315c0,0-5.247,12.657,9.795,18.229"/>
		</g>
		
			<text transform="matrix(0.75 -0.433 0.866 0.5 479.9627 376.3285)" style="fill:#607ACE; font-family:'Montserrat-Bold'; font-size:62.5353px;">NLP</text>
		
			<text transform="matrix(0.75 -0.433 0.866 0.5 492.7473 384.7196)" style="fill:#2E466C; font-family:'Montserrat-Bold'; font-size:8.5576px;">Natural Language Processing</text>
		<polygon style="fill:#607ACE;" points="243.682,203.262 275.697,199.565 250.085,184.778 		"/>
		<polygon style="fill:#92B938;" points="555.562,361.515 581.174,376.302 587.578,357.818 		"/>
		<g>
			<path style="fill:#2E466C;" d="M667.389,47.489l-5.764-3.356c-0.66-0.432-1.542-0.42-2.511,0.139l-52.057,30.055
				c-2.044,1.18-3.701,4.347-3.701,7.072v52.916c0,1.61,0.579,2.706,1.473,3.09l4,2.326l1.387,0.812l2.037,0.169v6.173
				c0,0.477,0.246,0.831,0.581,1.028l-0.001,0.002l5.759,3.322L667.389,47.489z"/>
			<path style="fill:#FFFFFF;" d="M664.854,47.611l-52.057,30.055c-2.044,1.18-3.701,4.347-3.701,7.072v52.915
				c0,2.726,1.657,3.978,3.701,2.798l5.196-3v12.746c0,1.231,1.631,1.664,2.242,0.597l12.52-21.866l32.099-18.532
				c2.044-1.18,3.701-4.346,3.701-7.072V50.409C668.555,47.683,666.898,46.431,664.854,47.611z"/>
		</g>
		<g>
			<path style="fill:#2E466C;" d="M142.941,413.789l16.045,15.677l-1.669-17.221l10.051-66.273l-5.764-3.355
				c-0.66-0.432-1.542-0.42-2.511,0.139l-52.057,30.055c-2.044,1.18-3.701,4.347-3.701,7.072v52.916c0,1.61,0.579,2.706,1.473,3.09
				l4,2.326l1.387,0.812l1.295,0.107L142.941,413.789z"/>
			<path style="fill:#FFFFFF;" d="M164.833,346.093l-52.057,30.055c-2.044,1.18-3.701,4.347-3.701,7.072v52.915
				c0,2.726,1.657,3.978,3.701,2.798l31.383-18.167l14.827,8.698l-0.065-17.221l5.912-3.365c2.044-1.18,3.701-4.346,3.701-7.072
				v-52.916C168.534,346.166,166.877,344.913,164.833,346.093z"/>
		</g>
		
			<text transform="matrix(0.75 -0.433 0 1 615.8236 124.2498)" style="fill:#607ACE; font-family:'Montserrat-Medium'; font-size:49.4027px;">Aa</text>
		
			<text transform="matrix(0.75 -0.433 0 1 114.7667 424.9534)" style="fill:#607ACE; font-family:'Montserrat-Medium'; font-size:49.4027px;">Aa</text>
		<g>
			<g>
				<path style="fill:#B5292A;" d="M292.465,58.009L292.465,58.009l4.32-2.552l0,0c0.973-0.58,2.249-0.536,3.647,0.271
					c3.05,1.761,5.523,6.485,5.523,10.552c0,2.269-0.77,3.854-1.98,4.506l-4.316,2.551l0,0c-0.971,0.573-2.243,0.526-3.636-0.278
					c-3.05-1.761-5.523-6.485-5.523-10.552C290.499,60.246,291.263,58.666,292.465,58.009z"/>
			</g>
			<g>
				<path style="fill:#2E466C;" d="M303.498,123.532l-48.837,4.227v5.09l0.004,0c0.03,3.21,1.985,6.271,5.954,8.563
					c8.829,5.098,24.252,4.458,34.447-1.428c5.655-3.265,8.508-7.457,8.427-11.414l0.004,0V123.532z"/>
				
					<ellipse transform="matrix(0.9927 -0.121 0.121 0.9927 -13.1491 34.6872)" style="fill:#607ACE;" cx="279.08" cy="125.628" rx="24.543" ry="13.885"/>
			</g>
			<g>
				<path style="fill:#2E466C;" d="M285.708,109.416l-13.257,1.147v14.51l0.001,0c0.008,0.871,0.539,1.702,1.616,2.324
					c2.397,1.384,6.583,1.21,9.351-0.388c1.535-0.886,2.31-2.024,2.287-3.098l0.001,0V109.416z"/>
				
					<ellipse transform="matrix(0.9927 -0.121 0.121 0.9927 -10.5906 34.5312)" style="fill:#607ACE;" cx="279.08" cy="104.483" rx="9.05" ry="5.12"/>
			</g>
			<path style="fill:#607ACE;" d="M280.843,37.141L280.843,37.141c-11.922,0-21.587,9.665-21.587,21.587v25.399
				c0,11.922,9.665,21.587,21.587,21.587l0,0c11.922,0,21.587-9.665,21.587-21.587V58.729
				C302.43,46.806,292.765,37.141,280.843,37.141z"/>
			<path style="fill:#2E466C;" d="M302.424,64.887l-0.019,0.002c-0.069,3.412-2.57,6.994-7.431,9.8
				c-9.012,5.203-22.645,5.768-30.45,1.262c-3.375-1.949-5.101-4.528-5.251-7.247l-0.018,0.002v12.161
				c0.003,0.005,0.01,0.013,0.013,0.018c0.054,2.812,1.776,5.492,5.256,7.501c7.805,4.506,21.438,3.941,30.45-1.262
				c5.035-2.907,7.557-6.647,7.446-10.167l0.009-0.001V64.892L302.424,64.887z"/>
			<g>
				<path style="fill:#FAA226;" d="M274.747,104.836v-2.488c-0.849,0.67-1.746,1.288-2.696,1.837c-1.853,1.07-4.065,1.07-5.918,0
					c-1.853-1.069-2.959-2.985-2.959-5.125V69.241l-2.673,1.544V99.06c0,3.106,1.606,5.887,4.296,7.44
					c1.345,0.777,2.82,1.165,4.296,1.165c1.475,0,2.951-0.388,4.296-1.165c0.767-0.443,1.496-0.933,2.204-1.448
					C275.31,104.982,275.025,104.918,274.747,104.836z"/>
				<polygon style="fill:#FAA226;" points="263.174,69.241 274.747,75.923 273.293,99.448 274.747,109.083 277.216,113.613 
					264.796,106.501 261.678,98.124 				"/>
				<path style="fill:#FAA226;" d="M280.843,105.715L280.843,105.715c-2.118,0-4.162-0.31-6.095-0.878v-1.428l-1.454,1.228
					l1.232,5.03l5.788,3.342l7.941-3.369l5.988-8.592C290.56,103.966,285.907,105.715,280.843,105.715z"/>
				<path style="fill:#FDDA5C;" d="M291.833,102.707c-1.96,3.332-4.761,6.171-8.208,8.161c-1.853,1.07-4.066,1.071-5.918,0
					c-1.853-1.07-2.959-2.985-2.959-5.125v-0.906V75.923l-2.674,1.544v28.276c0,3.106,1.606,5.887,4.296,7.44
					c1.345,0.777,2.82,1.165,4.296,1.165c1.475,0,2.951-0.388,4.296-1.165c5.47-3.158,9.486-8.225,11.415-14.073
					C295.033,100.502,293.507,101.714,291.833,102.707z"/>
			</g>
			<g>
				<path style="fill:#B5292A;" d="M257.835,78.003L257.835,78.003l4.32-2.552l0,0c0.973-0.58,2.249-0.536,3.647,0.271
					c3.05,1.761,5.523,6.485,5.523,10.552c0,2.269-0.77,3.854-1.98,4.506l-4.316,2.551l0,0c-0.971,0.573-2.243,0.526-3.636-0.278
					c-3.05-1.761-5.523-6.485-5.523-10.552C255.869,80.24,256.633,78.66,257.835,78.003z"/>
				<path style="fill:#E84C3D;" d="M255.869,82.5c0,4.067,2.473,8.791,5.523,10.552c3.05,1.761,5.523-0.108,5.523-4.175
					c0-4.067-2.473-8.791-5.523-10.552C258.341,76.564,255.869,78.434,255.869,82.5z"/>
			</g>
		</g>
		
			<line style="fill:none;stroke:#2E466C;stroke-width:2;stroke-linecap:round;stroke-miterlimit:10;" x1="318.452" y1="160.15" x2="288.305" y2="142.745"/>
		
			<line style="fill:none;stroke:#2E466C;stroke-width:2;stroke-linecap:round;stroke-miterlimit:10;" x1="200.197" y1="228.316" x2="163.729" y2="207.262"/>
		<g>
			<path style="fill:#EF651D;" d="M180.862,184.929c0,0-34.822-2.848-35.128-3.051l-4.562-7.613
				c0.274-1.862,1.542-3.612,3.874-4.959v-6.298l-54.134,2.157v6.312l0.011,0.007c-0.018,2.203,1.342,4.507,4.013,6.464
				l-5.375,2.776v6.34l0.015,0.008c0.024,0.72,0.544,1.472,1.568,2.063l7.239,4.179l-3.701,2.264v6.173l0.008,0
				c-0.037,2.611,1.846,5.373,5.575,7.526c6.752,3.898,16.966,4.322,22.813,0.946c0.789-0.456,1.448-0.96,1.999-1.496l10.075,5.817
				c1.917,1.107,4.817,1.227,6.477,0.268l8.725-5.037c0.691,0.588,1.483,1.152,2.394,1.678c6.752,3.898,16.966,4.322,22.813,0.946
				c2.673-1.543,3.955-3.614,3.931-5.779l0.015,0.001v-6.195l-6.79-3.563l7.023-4.055c0.752-0.434,1.101-1.017,1.101-1.626
				l0.02-0.01V184.929z"/>
			<path style="fill:#FDDA5C;" d="M145.047,163.008l-9.778-5.645c-1.917-1.107-4.817-1.227-6.477-0.268l-8.725,5.037
				c-0.691-0.588-1.483-1.152-2.394-1.679c-6.752-3.898-16.966-4.322-22.813-0.946c-5.847,3.376-5.114,9.273,1.638,13.171
				c0.911,0.526,1.889,0.983,2.907,1.382l-8.725,5.037c-1.66,0.958-1.452,2.633,0.465,3.74l10.075,5.817
				c-0.929,0.318-1.803,0.699-2.592,1.154c-5.848,3.376-5.114,9.273,1.638,13.171c6.752,3.898,16.966,4.322,22.813,0.946
				c0.789-0.456,1.448-0.96,1.999-1.496l10.075,5.817c1.917,1.107,4.817,1.227,6.477,0.268l8.725-5.037
				c0.691,0.588,1.483,1.152,2.394,1.678c6.752,3.898,16.966,4.322,22.813,0.946c5.848-3.376,5.114-9.273-1.638-13.171
				c-0.911-0.526-1.889-0.983-2.907-1.382l8.725-5.037c1.66-0.959,1.452-2.633-0.465-3.74l-9.778-5.645
				c-5.848,3.376-16.061,2.953-22.814-0.946C139.933,172.281,139.199,166.384,145.047,163.008z"/>
		</g>
		<g>
			<g>
				<path style="fill:#EF651D;" d="M144.672,307.881l-91.054,7.613l0.005,14.351c0.004,1.197,0.873,2.458,2.58,3.443l30.365,17.531
					c3.127,1.806,7.858,2.002,10.566,0.438l45.708-26.389c1.25-0.722,1.843-1.693,1.82-2.706L144.672,307.881z"/>
				<path style="fill:#495D1C;" d="M101.154,286.358l-45.708,26.389c-2.708,1.564-2.369,4.295,0.759,6.1L86.57,336.38
					c3.127,1.806,7.858,2.002,10.566,0.438l45.708-26.389c2.708-1.564,2.369-4.295-0.759-6.101l-30.365-17.531
					C108.593,284.991,103.862,284.795,101.154,286.358z"/>
				<path style="fill:#FDDA5C;" d="M103.326,340.347c0,1.337-0.813,2.891-1.816,3.47c-1.003,0.579-1.816-0.036-1.816-1.373
					c0-1.337,0.813-2.891,1.816-3.47C102.513,338.395,103.326,339.009,103.326,340.347z"/>
				<path style="fill:#FDDA5C;" d="M108.635,337.268c0,1.337-0.813,2.891-1.816,3.47c-1.003,0.579-1.816-0.036-1.816-1.373
					c0-1.337,0.813-2.891,1.816-3.47C107.822,335.316,108.635,335.931,108.635,337.268z"/>
				<path style="fill:#FDDA5C;" d="M113.943,334.189c0,1.337-0.813,2.891-1.816,3.47c-1.003,0.579-1.816-0.036-1.816-1.373
					c0-1.337,0.813-2.891,1.816-3.47C113.131,332.237,113.943,332.852,113.943,334.189z"/>
				<path style="fill:#FDDA5C;" d="M119.252,331.11c0,1.337-0.813,2.891-1.816,3.47c-1.003,0.579-1.816-0.036-1.816-1.373
					c0-1.337,0.813-2.891,1.816-3.47C118.439,329.158,119.252,329.772,119.252,331.11z"/>
				<path style="fill:#FDDA5C;" d="M140.969,318.656c0,2.123-1.291,4.589-2.883,5.508c-1.592,0.919-2.883-0.056-2.883-2.179
					c0-2.123,1.291-4.589,2.883-5.508C139.679,315.557,140.969,316.533,140.969,318.656z"/>
			</g>
			<g>
				<path style="fill:#FAA226;" d="M144.672,294.091l-91.054,7.613l0.005,14.351c0.004,1.197,0.873,2.458,2.58,3.443l30.365,17.531
					c3.127,1.806,7.858,2.002,10.566,0.438l45.708-26.389c1.25-0.722,1.843-1.693,1.82-2.706L144.672,294.091z"/>
				<g>
					<path style="fill:#FDDA5C;" d="M101.154,272.568l-45.708,26.389c-2.708,1.564-2.369,4.295,0.759,6.1L86.57,322.59
						c3.127,1.806,7.858,2.002,10.566,0.438l45.708-26.389c2.708-1.564,2.369-4.295-0.759-6.101l-30.365-17.531
						C108.593,271.201,103.862,271.005,101.154,272.568z"/>
				</g>
				<path style="fill:#FDDA5C;" d="M103.326,326.557c0,1.337-0.813,2.891-1.816,3.47c-1.003,0.579-1.816-0.036-1.816-1.373
					c0-1.337,0.813-2.891,1.816-3.47C102.513,324.605,103.326,325.219,103.326,326.557z"/>
				<path style="fill:#FDDA5C;" d="M108.635,323.478c0,1.337-0.813,2.891-1.816,3.47c-1.003,0.579-1.816-0.036-1.816-1.373
					c0-1.337,0.813-2.891,1.816-3.47C107.822,321.526,108.635,322.14,108.635,323.478z"/>
				<path style="fill:#FDDA5C;" d="M113.943,320.399c0,1.337-0.813,2.891-1.816,3.47c-1.003,0.579-1.816-0.036-1.816-1.373
					c0-1.337,0.813-2.891,1.816-3.47C113.131,318.447,113.943,319.061,113.943,320.399z"/>
				<path style="fill:#FDDA5C;" d="M119.252,317.32c0,1.337-0.813,2.891-1.816,3.47c-1.003,0.579-1.816-0.036-1.816-1.373
					c0-1.337,0.813-2.891,1.816-3.47C118.439,315.368,119.252,315.982,119.252,317.32z"/>
				<path style="fill:#FDDA5C;" d="M140.969,304.866c0,2.123-1.291,4.589-2.883,5.508c-1.592,0.919-2.883-0.056-2.883-2.179
					c0-2.123,1.291-4.589,2.883-5.508C139.679,301.767,140.969,302.743,140.969,304.866z"/>
			</g>
			<g>
				<path style="fill:#495D1C;" d="M144.672,279.651l-91.054,7.612l0.005,14.351c0.004,1.197,0.873,2.458,2.58,3.443L86.57,322.59
					c3.127,1.806,7.858,2.002,10.566,0.438l45.708-26.389c1.25-0.722,1.843-1.693,1.82-2.706L144.672,279.651z"/>
				<path style="fill:#92B938;" d="M101.154,258.129l-45.708,26.389c-2.708,1.564-2.369,4.295,0.759,6.1L86.57,308.15
					c3.127,1.806,7.858,2.002,10.566,0.438l45.708-26.389c2.708-1.564,2.369-4.295-0.759-6.1l-30.365-17.531
					C108.593,256.761,103.862,256.565,101.154,258.129z"/>
				<path style="fill:#FDDA5C;" d="M103.326,312.117c0,1.337-0.813,2.891-1.816,3.47c-1.003,0.579-1.816-0.036-1.816-1.373
					c0-1.337,0.813-2.891,1.816-3.47C102.513,310.165,103.326,310.78,103.326,312.117z"/>
				<path style="fill:#FDDA5C;" d="M108.635,309.038c0,1.337-0.813,2.891-1.816,3.47c-1.003,0.579-1.816-0.036-1.816-1.373
					s0.813-2.891,1.816-3.47C107.822,307.086,108.635,307.701,108.635,309.038z"/>
				<path style="fill:#FDDA5C;" d="M113.943,305.959c0,1.337-0.813,2.891-1.816,3.47c-1.003,0.579-1.816-0.036-1.816-1.373
					c0-1.337,0.813-2.891,1.816-3.47C113.131,304.007,113.943,304.622,113.943,305.959z"/>
				<path style="fill:#FDDA5C;" d="M119.252,302.88c0,1.337-0.813,2.891-1.816,3.47c-1.003,0.579-1.816-0.036-1.816-1.373
					c0-1.337,0.813-2.891,1.816-3.47C118.439,300.928,119.252,301.543,119.252,302.88z"/>
				<path style="fill:#FDDA5C;" d="M140.969,290.426c0,2.123-1.291,4.589-2.883,5.508c-1.592,0.919-2.883-0.056-2.883-2.179
					c0-2.123,1.291-4.589,2.883-5.508C139.679,287.328,140.969,288.303,140.969,290.426z"/>
			</g>
		</g>
		<g>
			<path style="fill:#EF651D;" d="M456.754,79.209L456.754,79.209l-3.844-2.222c0.091-0.347,0.228-0.707,0.417-1.069v0
				c1.298-2.48,1.298-5.286,0-6.268l-2.946-2.227c-0.085-0.064-10.929-6.323-10.929-6.323v0.001
				c-1.292-0.618-3.167,0.563-4.374,2.821l-4.312-2.491l0,0c-0.592-0.387-1.384-0.376-2.254,0.126l-4.166,2.405
				c-1.836,1.06-3.324,3.903-3.324,6.351v0c0,2.23-2.022,4.514-3.204,3.62l0,0c-1.298-0.981-3.403,0.234-4.701,2.714l-2.946,5.629
				c-1.298,2.48-1.298,5.286,0,6.268h0c1.182,0.894,0.345,4.073-1.327,5.039l0,0c-1.836,1.06-3.324,3.903-3.324,6.351v5.555
				c0,1.337,0.445,2.279,1.147,2.686l0,0l3.921,2.265c-0.091,0.346-0.228,0.706-0.417,1.067h0c-1.298,2.48-1.298,5.286,0,6.268
				l13.797,8.51l0,0c1.293,0.704,3.219-0.478,4.45-2.781l4.425,2.557l0-0.001c0.578,0.316,1.325,0.278,2.141-0.193l4.166-2.405
				c1.836-1.06,3.324-3.903,3.324-6.351v0c0-2.23,2.022-4.514,3.204-3.62l0,0c1.298,0.981,3.403-0.234,4.701-2.714l2.946-5.629
				c1.298-2.48,1.298-5.286,0-6.268l0,0c-1.182-0.894-0.345-4.073,1.327-5.039h0c1.836-1.06,3.324-3.903,3.324-6.351v-5.555
				C457.979,80.552,457.501,79.591,456.754,79.209z"/>
			<path style="fill:#FDDA5C;" d="M454.655,79.425L454.655,79.425c-1.672,0.965-2.51-1.247-1.327-3.506l0,0
				c1.298-2.48,1.298-5.286,0-6.268l-2.946-2.227c-1.298-0.981-3.403,0.234-4.701,2.714l0,0c-1.183,2.259-3.204,2.31-3.204,0.08v0
				c0-2.448-1.488-3.573-3.324-2.513l-4.166,2.405c-1.836,1.06-3.324,3.903-3.324,6.351v0c0,2.23-2.022,4.514-3.204,3.62l0,0
				c-1.298-0.981-3.403,0.234-4.701,2.714l-2.946,5.629c-1.298,2.48-1.298,5.286,0,6.268h0c1.182,0.894,0.345,4.073-1.327,5.039l0,0
				c-1.836,1.06-3.324,3.903-3.324,6.351v5.555c0,2.448,1.488,3.573,3.324,2.513v0c1.672-0.965,2.51,1.247,1.327,3.506l0,0
				c-1.298,2.48-1.298,5.286,0,6.268l2.946,2.227c1.298,0.981,3.403-0.234,4.701-2.714l0,0c1.182-2.259,3.204-2.31,3.204-0.08v0
				c0,2.448,1.488,3.573,3.324,2.513l4.166-2.405c1.836-1.06,3.324-3.903,3.324-6.351v0c0-2.23,2.022-4.514,3.204-3.62l0,0
				c1.298,0.981,3.403-0.234,4.701-2.714l2.946-5.629c1.298-2.48,1.298-5.286,0-6.268l0,0c-1.182-0.894-0.345-4.073,1.327-5.039l0,0
				c1.836-1.06,3.324-3.903,3.324-6.351v-5.555C457.979,79.49,456.49,78.365,454.655,79.425z"/>
			
				<ellipse transform="matrix(0.3916 -0.9202 0.9202 0.3916 176.8748 461.0623)" style="fill:#EF651D;" cx="437.069" cy="96.787" rx="18.256" ry="10.328"/>
			<path style="fill:#FDDA5C;" d="M443.763,92.923c0,4.929-2.997,10.656-6.694,12.791c-3.697,2.134-6.694-0.131-6.694-5.061
				c0-4.929,2.997-10.656,6.694-12.791C440.766,85.727,443.763,87.993,443.763,92.923z"/>
		</g>
		<polygon style="fill:none;stroke:#2E466C;stroke-width:1.067;stroke-linecap:round;stroke-miterlimit:10;" points="
			214.741,103.338 213.126,95.135 211.51,105.204 207.46,109.885 211.51,109.889 213.126,118.092 214.741,108.023 218.791,103.343 
					"/>
		<polygon style="fill:none;stroke:#2E466C;stroke-width:1.067;stroke-linecap:round;stroke-miterlimit:10;" points="
			702.137,292.503 700.522,284.299 698.907,294.368 694.856,299.049 698.907,299.053 700.522,307.256 702.137,297.188 
			706.188,292.507 		"/>
		<polygon style="fill:none;stroke:#2E466C;stroke-width:1.067;stroke-linecap:round;stroke-miterlimit:10;" points="
			237.581,432.715 235.965,424.512 234.35,434.58 230.3,439.261 234.35,439.265 235.965,447.469 237.581,437.4 241.631,432.719 		
			"/>
		<polygon style="fill:none;stroke:#2E466C;stroke-width:1.067;stroke-linecap:round;stroke-miterlimit:10;" points="503.74,75.323 
			502.124,67.119 500.509,77.188 496.459,81.869 500.509,81.873 502.124,90.076 503.74,80.008 507.79,75.327 		"/>
		<polygon style="fill:none;stroke:#2E466C;stroke-width:1.067;stroke-linecap:round;stroke-miterlimit:10;" points="
			535.124,432.715 533.508,424.512 531.893,434.58 527.843,439.261 531.893,439.265 533.508,447.469 535.124,437.4 539.174,432.719 
					"/>
		<polygon style="fill:none;stroke:#2E466C;stroke-width:1.067;stroke-linecap:round;stroke-miterlimit:10;" points="
			62.497,238.236 60.882,230.033 59.266,240.102 55.216,244.783 59.266,244.787 60.882,252.99 62.497,242.921 66.547,238.24 		"/>
		<g>
			<path style="fill:#607ACE;" d="M399.258,374.736l-58.097,33.543c-0.986,0.569-1.594,1.622-1.594,2.76v43.989
				c0,1.165,1.261,1.893,2.27,1.311l58.097-33.543c0.986-0.569,1.594-1.622,1.594-2.76v-43.989
				C401.529,374.882,400.267,374.153,399.258,374.736z"/>
			<g>
				<polygon style="fill:#FDDA5C;" points="358.416,420.097 350.896,424.439 350.896,437.591 358.416,433.25 				"/>
				<polygon style="fill:#E84C3D;" points="369.058,419.393 361.538,423.735 361.538,431.447 369.058,427.105 				"/>
				<polygon style="fill:#FAA226;" points="379.7,400.528 372.18,404.87 372.18,425.303 379.7,420.961 				"/>
				<polygon style="fill:#92B938;" points="390.342,387.194 382.822,391.536 382.822,419.159 390.342,414.817 				"/>
				<polyline style="fill:none;stroke:#FFFFFF;stroke-width:0.6895;stroke-linecap:round;stroke-miterlimit:10;" points="
					347.916,411.69 347.916,443.88 393.18,417.747 				"/>
			</g>
		</g>
		<g>
			<path style="fill:#2E466C;" d="M639.128,227.645l56.22-32.458c1.343-0.776,3.023,0.194,3.023,1.745v43.265
				c0,1.943-1.036,3.738-2.719,4.71l-56.22,32.458c-1.343,0.776-3.023-0.194-3.023-1.745v-43.265
				C636.409,230.412,637.445,228.616,639.128,227.645z"/>
			<g>
				<g>
					<path style="fill:#92B938;" d="M649.535,232.412l-3.475,2.006c-0.439,0.253-0.794,0.933-0.794,1.518l0,0
						c0,0.585,0.356,0.854,0.794,0.601l3.475-2.006c0.439-0.253,0.794-0.933,0.794-1.518l0,0
						C650.329,232.427,649.974,232.158,649.535,232.412z"/>
					<path style="fill:#FFFFFF;" d="M660.583,226.033l-3.475,2.006c-0.439,0.253-0.794,0.933-0.794,1.518l0,0
						c0,0.585,0.356,0.854,0.794,0.6l3.475-2.006c0.439-0.253,0.794-0.933,0.794-1.518l0,0
						C661.377,226.048,661.022,225.78,660.583,226.033z"/>
					<path style="fill:#92B938;" d="M680.39,214.597l-3.475,2.006c-0.439,0.253-0.794,0.933-0.794,1.518l0,0
						c0,0.585,0.356,0.854,0.794,0.601l3.475-2.006c0.439-0.253,0.794-0.933,0.794-1.518l0,0
						C681.185,214.613,680.829,214.344,680.39,214.597z"/>
					<path style="fill:#FFFFFF;" d="M664.735,223.636l-1.737,1.003c-0.439,0.253-0.794,0.933-0.794,1.518l0,0
						c0,0.585,0.356,0.854,0.794,0.6l1.737-1.003c0.439-0.253,0.794-0.933,0.794-1.518l0,0
						C665.529,223.651,665.174,223.382,664.735,223.636z"/>
					<path style="fill:#FFFFFF;" d="M646.403,243.174l-3.475,2.006c-0.439,0.253-0.794,0.933-0.794,1.518l0,0
						c0,0.585,0.356,0.854,0.794,0.601l3.475-2.006c0.439-0.253,0.794-0.933,0.794-1.518l0,0
						C647.197,243.189,646.842,242.921,646.403,243.174z"/>
					<path style="fill:#FFFFFF;" d="M665.494,232.152l-3.475,2.006c-0.439,0.253-0.794,0.933-0.794,1.518l0,0
						c0,0.585,0.356,0.854,0.794,0.6l3.475-2.006c0.439-0.253,0.794-0.933,0.794-1.518l0,0
						C666.288,232.167,665.932,231.899,665.494,232.152z"/>
					<path style="fill:#FFFFFF;" d="M659.59,235.56l-6.101,3.522c-0.439,0.253-0.794,0.933-0.794,1.518l0,0
						c0,0.585,0.356,0.854,0.794,0.601l6.101-3.523c0.439-0.253,0.794-0.933,0.794-1.518l0,0
						C660.384,235.576,660.029,235.307,659.59,235.56z"/>
					<path style="fill:#FFFFFF;" d="M650.555,240.777l-1.737,1.003c-0.439,0.253-0.794,0.933-0.794,1.518l0,0
						c0,0.585,0.356,0.854,0.794,0.601l1.737-1.003c0.439-0.253,0.794-0.933,0.794-1.518l0,0
						C651.349,240.792,650.994,240.523,650.555,240.777z"/>
					<path style="fill:#FFFFFF;" d="M656.201,245.232l-3.475,2.006c-0.439,0.253-0.794,0.933-0.794,1.518l0,0
						c0,0.585,0.356,0.854,0.794,0.6l3.475-2.006c0.439-0.253,0.794-0.933,0.794-1.518l0,0
						C656.995,245.248,656.64,244.979,656.201,245.232z"/>
					<path style="fill:#FFFFFF;" d="M671.509,236.394l-3.475,2.006c-0.439,0.253-0.794,0.933-0.794,1.518l0,0
						c0,0.585,0.356,0.854,0.794,0.6l3.475-2.006c0.439-0.253,0.794-0.933,0.794-1.518l0,0
						C672.304,236.409,671.948,236.14,671.509,236.394z"/>
					<path style="fill:#FFFFFF;" d="M660.353,242.835l-1.737,1.003c-0.439,0.253-0.794,0.933-0.794,1.518l0,0
						c0,0.585,0.356,0.854,0.794,0.6l1.737-1.003c0.439-0.253,0.794-0.933,0.794-1.518l0,0
						C661.147,242.85,660.792,242.582,660.353,242.835z"/>
					<path style="fill:#FAA226;" d="M653.866,229.966l-1.544-1.167c-0.31-0.234-0.813,0.056-1.123,0.648
						c-0.31,0.593-0.31,1.263,0,1.498l0.994,0.751l-0.994,1.899c-0.31,0.593-0.31,1.263,0,1.498c0.31,0.235,0.813-0.056,1.123-0.648
						l1.544-2.951c0.158-0.302,0.234-0.623,0.232-0.897C654.1,230.318,654.023,230.085,653.866,229.966z"/>
					<path style="fill:#FAA226;" d="M665.201,239.896l-1.544-1.167c-0.31-0.234-0.813,0.056-1.123,0.648
						c-0.31,0.593-0.31,1.263,0,1.498l0.994,0.751l-0.994,1.899c-0.31,0.593-0.31,1.263,0,1.498c0.31,0.235,0.813-0.056,1.123-0.648
						l1.544-2.951c0.158-0.302,0.234-0.623,0.232-0.897C665.435,240.248,665.359,240.015,665.201,239.896z"/>
					<path style="fill:#FDDA5C;" d="M685.151,211.903l-1.544-1.167c-0.31-0.235-0.813,0.056-1.123,0.649
						c-0.31,0.593-0.31,1.263,0,1.498l0.994,0.751l-0.994,1.899c-0.31,0.593-0.31,1.263,0,1.498c0.31,0.234,0.813-0.056,1.123-0.649
						l1.544-2.951c0.158-0.302,0.234-0.623,0.232-0.897C685.386,212.255,685.31,212.022,685.151,211.903z"/>
					<path style="fill:#FDDA5C;" d="M667.842,221.897l1.544-2.951c0.31-0.593,0.813-0.883,1.123-0.649s0.31,0.905,0,1.498
						l-0.994,1.899l0.994,0.751c0.31,0.234,0.31,0.905,0,1.498c-0.31,0.593-0.813,0.883-1.123,0.649l-1.544-1.168
						c-0.158-0.119-0.235-0.352-0.232-0.63C667.607,222.52,667.684,222.198,667.842,221.897z"/>
					<path style="fill:#FAA226;" d="M642.366,236.605l1.544-2.951c0.31-0.593,0.813-0.883,1.123-0.649
						c0.31,0.235,0.31,0.905,0,1.498l-0.994,1.899l0.994,0.751c0.31,0.234,0.31,0.905,0,1.498s-0.813,0.883-1.123,0.649
						l-1.544-1.167c-0.158-0.119-0.234-0.352-0.232-0.63C642.131,237.228,642.208,236.907,642.366,236.605z"/>
					<path style="fill:#92B938;" d="M673.973,216.975l-2.457,4.695c-0.31,0.593-0.31,1.263,0,1.498l0,0
						c0.31,0.234,0.813-0.056,1.123-0.648l2.457-4.695c0.31-0.593,0.31-1.263,0-1.498l0,0
						C674.786,216.092,674.283,216.382,673.973,216.975z"/>
					<path style="fill:#92B938;" d="M644.941,250.405l-2.457,4.695c-0.31,0.593-0.31,1.263,0,1.498l0,0
						c0.31,0.234,0.813-0.056,1.123-0.648l2.457-4.695c0.31-0.593,0.31-1.263,0-1.498l0,0
						C645.754,249.522,645.251,249.812,644.941,250.405z"/>
					<path style="fill:#92B938;" d="M649.328,247.872l-2.457,4.695c-0.31,0.593-0.31,1.263,0,1.498l0,0
						c0.31,0.234,0.813-0.056,1.123-0.648l2.457-4.695c0.31-0.593,0.31-1.263,0-1.498l0,0
						C650.141,246.989,649.638,247.28,649.328,247.872z"/>
				</g>
			</g>
		</g>
		<g>
			<path style="fill:#607ACE;" d="M422.511,171.089l-80.294,46.358c-1.363,0.787-2.203,2.241-2.203,3.815v60.796
				c0,1.61,1.743,2.617,3.138,1.812l80.294-46.358c1.363-0.787,2.203-2.241,2.203-3.815v-60.795
				C425.649,171.291,423.906,170.284,422.511,171.089z"/>
			<path style="fill:none;stroke:#FFFFFF;stroke-width:1.7862;stroke-linecap:round;stroke-miterlimit:10;" d="M346.102,250.317
				l11.676-6.741c1.868-1.078,3.347-2.778,3.97-4.843c0.166-0.551,0.285-1.149,0.324-1.786c0.212-3.396-0.755-9.817,2.865-11.248
				c5.364-2.12,3.648,17.16,5.73,19.949c2.328,3.118,6.579-0.646,6.473-7.38c-0.106-6.733-1.626-22.177,0.743-25.728
				c2.381-3.569,7.209-2.214,7.322,7.322c0.055,4.607,0.126,13.623,3.548,14.976c3.623,1.432,5.399-1.317,4.835-9.352
				c-0.357-5.085-0.88-11.244,0.895-13.57c1.72-2.253,4.775-2.041,4.729,6.566c-0.049,9.012,6.685,10.293,7.216,4.245
				c0.172-1.958,0.288-3.439,0.366-4.547c0.135-1.897,1.202-3.598,2.849-4.549l8.071-4.66"/>
		</g>
	</g>
</g>
</svg>
