<svg xmlns="http://www.w3.org/2000/svg" width="100" height="100" viewBox="0 0 100 100">
  <g id="Group_56458" data-name="Group 56458" transform="translate(-70 -1216)">
    <rect id="Rectangle_9032" data-name="Rectangle 9032" width="100" height="100" rx="5" transform="translate(70 1216)" fill="#f4f6fc"/>
    <g id="Group_56443" data-name="Group 56443" transform="translate(94 1240)">
      <g id="Group_56444" data-name="Group 56444">
        <path id="Path_164103" data-name="Path 164103" d="M97.208,42.762a1.565,1.565,0,0,1-1.483-1.07,7.577,7.577,0,0,0-7.2-5.188H81.564A1.564,1.564,0,0,1,80,34.94V1.564A1.564,1.564,0,0,1,81.564,0h6.962A10.7,10.7,0,0,1,98.693,7.328a1.566,1.566,0,0,1,.08.495V41.2a1.565,1.565,0,0,1-1.565,1.565M83.129,33.375h5.4a10.7,10.7,0,0,1,7.118,2.7V8.088a7.577,7.577,0,0,0-7.118-4.959h-5.4Z" transform="translate(-73.742)" fill="#105185"/>
        <path id="Path_164104" data-name="Path 164104" d="M23.467,91.924H1.564A1.564,1.564,0,0,1,0,90.359V54.9a1.564,1.564,0,0,1,1.564-1.564H7.822a1.564,1.564,0,0,1,0,3.129H3.129V88.795H21.9V56.984a1.564,1.564,0,1,1,3.129,0V90.359a1.564,1.564,0,0,1-1.564,1.564" transform="translate(0 -49.162)" fill="#105185"/>
        <path id="Path_164105" data-name="Path 164105" d="M281.565,42.762A1.565,1.565,0,0,1,280,41.2V7.822a1.564,1.564,0,0,1,.08-.495A10.7,10.7,0,0,1,290.247,0h6.962a1.564,1.564,0,0,1,1.564,1.564V28.843a1.564,1.564,0,1,1-3.129,0V3.129h-5.4a7.577,7.577,0,0,0-7.118,4.959V36.105a10.844,10.844,0,0,1,2.995-1.876,1.564,1.564,0,1,1,1.208,2.886,7.579,7.579,0,0,0-4.283,4.577,1.565,1.565,0,0,1-1.483,1.07" transform="translate(-258.098)" fill="#105185"/>
        <path id="Path_164106" data-name="Path 164106" d="M287.845,116.5h-6.281A1.564,1.564,0,0,1,280,114.94V81.564a1.564,1.564,0,0,1,3.129,0v31.811h4.717a1.564,1.564,0,0,1,0,3.129" transform="translate(-258.097 -73.742)" fill="#105185"/>
        <path id="Path_164107" data-name="Path 164107" d="M487.822,91.671a1.564,1.564,0,0,1-1.564-1.564V56.463h-4.693a1.564,1.564,0,0,1,0-3.129h6.258a1.564,1.564,0,0,1,1.564,1.564V90.106a1.564,1.564,0,0,1-1.564,1.564" transform="translate(-442.453 -49.162)" fill="#105185"/>
        <path id="Path_164108" data-name="Path 164108" d="M355.349,365.308a9.906,9.906,0,1,1,7.006-16.91h0a9.9,9.9,0,0,1-7.006,16.91m0-16.68a6.774,6.774,0,1,0,4.794,1.982,6.758,6.758,0,0,0-4.794-1.982" transform="translate(-318.42 -318.474)" fill="#105185"/>
        <path id="Path_164109" data-name="Path 164109" d="M503.8,508.493a4.663,4.663,0,0,1-3.319-1.375l-6.31-6.31a1.564,1.564,0,0,1,2.212-2.213l6.31,6.31a1.564,1.564,0,0,0,2.213-2.212l-6.31-6.31a1.564,1.564,0,1,1,2.213-2.212l6.31,6.31a4.693,4.693,0,0,1-3.319,8.012" transform="translate(-455.094 -455.093)" fill="#105185"/>
      </g>
    </g>
  </g>
</svg>
