<svg xmlns="http://www.w3.org/2000/svg" width="100" height="100" viewBox="0 0 100 100">
  <g id="Group_56452" data-name="Group 56452" transform="translate(-697 -2048)">
    <rect id="Rectangle_9187" data-name="Rectangle 9187" width="100" height="100" rx="5" transform="translate(697 2048)" fill="#f4f6fc"/>
    <g id="thought" transform="translate(718.7 2069.7)">
      <path id="Path_164089" data-name="Path 164089" d="M33.046,33.7a12.481,12.481,0,0,0,6.322,1.756,12.786,12.786,0,0,0,4.654-24.673A12.578,12.578,0,0,0,31.817,1.3a12.8,12.8,0,0,0-11.59,7.376A17.051,17.051,0,0,0,18.12,8.5a12.888,12.888,0,0,0-5.707,24.41,12.931,12.931,0,0,0,10.537,5.707,13.518,13.518,0,0,0,10.1-4.917Zm-1.668-2.9a9.646,9.646,0,0,1-16.507,0,1.627,1.627,0,0,0-.7-.615A9.728,9.728,0,0,1,8.461,21.32a9.914,9.914,0,0,1,9.746-9.834,9.064,9.064,0,0,1,2.634.351,1.519,1.519,0,0,0,1.844-.966A9.652,9.652,0,0,1,31.9,4.285,9.764,9.764,0,0,1,41.388,12.1a1.539,1.539,0,0,0,1.054,1.141,9.713,9.713,0,0,1-2.9,18.966,10.675,10.675,0,0,1-5.883-1.932,1.524,1.524,0,0,0-1.229-.263c-.527.176-.878.351-1.054.79Z" transform="translate(0 0)" fill="#105185"/>
      <path id="Path_164090" data-name="Path 164090" d="M39.956,43.3a5.356,5.356,0,1,0,5.356,5.356A5.322,5.322,0,0,0,39.956,43.3Zm0,7.639a2.283,2.283,0,1,1,2.283-2.283A2.214,2.214,0,0,1,39.956,50.939Z" transform="translate(-3.573 -5.122)" fill="#105185"/>
      <path id="Path_164091" data-name="Path 164091" d="M52,53a4.3,4.3,0,1,0,4.3,4.566v-.088A4.312,4.312,0,0,0,55.163,54.4,4.082,4.082,0,0,0,52,53Zm1.229,4.215A1.229,1.229,0,1,1,52,55.985a1.127,1.127,0,0,1,.878.351A2.28,2.28,0,0,1,53.232,57.215Z" transform="translate(-5.171 -6.305)" fill="#105185"/>
    </g>
  </g>
</svg>
