<svg xmlns="http://www.w3.org/2000/svg" xmlns:xlink="http://www.w3.org/1999/xlink" width="100" height="100" viewBox="0 0 100 100">
  <defs>
    <clipPath id="clip-path">
      <rect id="Rectangle_9197" data-name="Rectangle 9197" width="48" height="48" transform="translate(-0.444 -0.444)" fill="#015481"/>
    </clipPath>
  </defs>
  <g id="Group_56457" data-name="Group 56457" transform="translate(-1324 -1216)">
    <rect id="Rectangle_9032" data-name="Rectangle 9032" width="100" height="100" rx="5" transform="translate(1324 1216)" fill="#f4f6fc"/>
    <g id="Group_56456" data-name="Group 56456" transform="translate(1350.444 1242.444)">
      <g id="Group_56455" data-name="Group 56455" clip-path="url(#clip-path)">
        <path id="Path_164113" data-name="Path 164113" d="M43.662,0H26.317a3.447,3.447,0,0,0-2.759,1.38H.69A.69.69,0,0,0,0,2.07V43.662a.69.69,0,0,0,.69.69H16.261a11.019,11.019,0,0,0,14.59,0H46.422a.69.69,0,0,0,.69-.69V3.451A3.454,3.454,0,0,0,43.662,0M22.936,2.76a3.453,3.453,0,0,0-.069.69v2.07H6.211a.69.69,0,0,0,0,1.38H23.556a.69.69,0,0,0,.69-.69V3.451a2.073,2.073,0,0,1,2.07-2.07H43.662a2.073,2.073,0,0,1,2.07,2.07V8.281H1.38V6.9H8.051a.69.69,0,0,0,0-1.38H1.38V2.76ZM13.894,36.07v-6.3a4.79,4.79,0,0,0-.457-2.054,1.4,1.4,0,0,1,.256-1.6,1.382,1.382,0,0,1,2.226.387,7.522,7.522,0,0,1,.736,3.266v3.451a.691.691,0,0,1-.69.69.69.69,0,0,0,0,1.38,2.073,2.073,0,0,0,2.07-2.07V16.563a1.38,1.38,0,0,1,2.76,0v13.2a.69.69,0,1,0,1.38,0V26.317a1.38,1.38,0,0,1,2.76,0v3.451a.69.69,0,1,0,1.38,0V27.7a1.38,1.38,0,1,1,2.76,0v2.07a.69.69,0,1,0,1.38,0,1.38,1.38,0,1,1,2.76,0v6.3a9.662,9.662,0,0,1-19.323,0M33.218,40.9c.349-.434-.383,1.175-.1.69H43.662a.69.69,0,0,0,.69-.69l-.69-29.169c0-.381.381-.69,0-.69H3.451a.69.69,0,0,0-.69.69V40.9a.69.69,0,0,0,.69.69H9.892a.69.69,0,0,0,0-1.38H4.141V12.422H42.972V40.211h-9.18A10.983,10.983,0,0,0,34.6,36.07v-6.3a2.759,2.759,0,0,0-4.158-2.379A2.759,2.759,0,0,0,26.161,25.4a2.757,2.757,0,0,0-3.985-1.477V16.563a2.76,2.76,0,0,0-5.521,0v8.613a2.768,2.768,0,0,0-1.521-.806,2.725,2.725,0,0,0-2.417.768,2.8,2.8,0,0,0-.529,3.163,3.419,3.419,0,0,1,.326,1.466v6.3a10.983,10.983,0,0,0,.806,4.141H8.972a.69.69,0,0,0,0,1.38H14c.281.485-.451-.77-.1-.335H3.451V11.732l40.211.69V40.9Z" fill="#015481"/>
        <path id="Path_164114" data-name="Path 164114" d="M441.594,37.523a.69.69,0,0,0,.976,0l.488-.488.488.488a.69.69,0,1,0,.976-.976l-.488-.488.488-.488a.69.69,0,1,0-.976-.976l-.488.488-.488-.488a.69.69,0,1,0-.976.976l.488.488-.488.488a.69.69,0,0,0,0,.976" transform="translate(-400.777 -31.228)" fill="#015481"/>
      </g>
    </g>
  </g>
</svg>
