<svg id="Component_6_1" data-name="Component 6 – 1" xmlns="http://www.w3.org/2000/svg" xmlns:xlink="http://www.w3.org/1999/xlink" width="50" height="50" viewBox="0 0 50 50">
  <defs>
    <clipPath id="clip-path">
      <rect id="Rectangle_8487" data-name="Rectangle 8487" width="25.081" height="25.081" fill="#1f5b8b"/>
    </clipPath>
  </defs>
  <g id="Ellipse_6" data-name="Ellipse 6" fill="none" stroke="#1f5b8b" stroke-width="1">
    <circle cx="25" cy="25" r="25" stroke="none"/>
    <circle cx="25" cy="25" r="24.5" fill="none"/>
  </g>
  <g id="Group_55781" data-name="Group 55781" transform="translate(13.459 12)">
    <g id="Group_55780" data-name="Group 55780" clip-path="url(#clip-path)">
      <path id="Path_163364" data-name="Path 163364" d="M13.765,25.081H3.919A3.923,3.923,0,0,1,0,21.162V3.919A3.923,3.923,0,0,1,3.919,0h9.846a3.923,3.923,0,0,1,3.919,3.919V5.878a.98.98,0,1,1-1.96,0V3.919a1.962,1.962,0,0,0-1.959-1.96H3.919a1.962,1.962,0,0,0-1.96,1.96V21.162a1.962,1.962,0,0,0,1.96,1.959h9.846a1.962,1.962,0,0,0,1.959-1.959V19.2a.98.98,0,0,1,1.96,0v1.959a3.923,3.923,0,0,1-3.919,3.919" fill="#1f5b8b"/>
      <path id="Path_163365" data-name="Path 163365" d="M276.1,230.481l-2.194-2.194a.98.98,0,0,0-1.386,1.386l1.561,1.561H262.314a.98.98,0,0,0,0,1.959h11.764l-1.561,1.561a.98.98,0,0,0,1.386,1.385l2.194-2.194a2.449,2.449,0,0,0,0-3.464" transform="translate(-251.732 -219.623)" fill="#1f5b8b"/>
    </g>
  </g>
</svg>
