<svg xmlns="http://www.w3.org/2000/svg" width="100" height="100" viewBox="0 0 100 100">
  <g id="Group_56450" data-name="Group 56450" transform="translate(-697 -1740)">
    <rect id="Rectangle_9183" data-name="Rectangle 9183" width="100" height="100" rx="5" transform="translate(697 1740)" fill="#f4f6fc"/>
    <g id="media" transform="translate(721 1764)">
      <path id="Path_164092" data-name="Path 164092" d="M11.084,21.019a3.692,3.692,0,0,1-3.678-3.684V10.181A3.678,3.678,0,0,1,12.924,7l6.2,3.577a3.679,3.679,0,0,1,0,6.371l-6.2,3.576a3.665,3.665,0,0,1-1.839.5Zm0-11.295a.453.453,0,0,0-.227.064.432.432,0,0,0-.227.393v7.154a.433.433,0,0,0,.227.393.425.425,0,0,0,.453,0l6.2-3.577a.453.453,0,0,0,0-.784l-6.2-3.578a.451.451,0,0,0-.226-.064Z" transform="translate(4.537 3.979)" fill="#396f9a"/>
      <path id="Path_164093" data-name="Path 164093" d="M17.738,35.475A17.738,17.738,0,1,1,35.475,17.738,17.758,17.758,0,0,1,17.738,35.475Zm0-32.25A14.513,14.513,0,1,0,32.25,17.738,14.529,14.529,0,0,0,17.738,3.225Z" fill="#396f9a"/>
      <path id="Path_164094" data-name="Path 164094" d="M39.413,44.25H16.838A4.843,4.843,0,0,1,12,39.413v-8.3a1.613,1.613,0,0,1,3.225,0v8.3a1.615,1.615,0,0,0,1.613,1.613H39.413a1.615,1.615,0,0,0,1.613-1.613V16.838a1.615,1.615,0,0,0-1.613-1.613h-8.3a1.613,1.613,0,0,1,0-3.225h8.3a4.843,4.843,0,0,1,4.838,4.838V39.413A4.843,4.843,0,0,1,39.413,44.25Z" transform="translate(7.35 7.35)" fill="#396f9a"/>
      <path id="Path_164095" data-name="Path 164095" d="M31.316,38.05a1.611,1.611,0,0,1-1.356-.737L22.236,25.348,15.373,36a1.613,1.613,0,1,1-2.72-1.732L19.527,23.6a3.225,3.225,0,0,1,5.423.005l7.719,11.958a1.613,1.613,0,0,1-1.353,2.488Z" transform="translate(7.595 13.55)" fill="#396f9a"/>
      <path id="Path_164096" data-name="Path 164096" d="M32.6,33.225H24.742a1.613,1.613,0,0,1,0-3.225H32.6a1.613,1.613,0,0,1,0,3.225Z" transform="translate(14.167 18.375)" fill="#396f9a"/>
      <path id="Path_164097" data-name="Path 164097" d="M34.629,35.761a1.611,1.611,0,0,1-1.357-.739l-4.305-6.676-3.529,5.482a1.613,1.613,0,0,1-2.712-1.746L26.258,26.6a3.225,3.225,0,0,1,5.423,0l4.3,6.67a1.613,1.613,0,0,1-1.353,2.486Z" transform="translate(13.763 15.388)" fill="#396f9a"/>
      <path id="Path_164098" data-name="Path 164098" d="M25.225,24.45a3.225,3.225,0,1,1,3.225-3.225A3.228,3.228,0,0,1,25.225,24.45Z" transform="translate(13.475 11.025)" fill="#396f9a"/>
    </g>
  </g>
</svg>
