<svg xmlns="http://www.w3.org/2000/svg" width="100" height="100" viewBox="0 0 100 100">
  <g id="Group_56448" data-name="Group 56448" transform="translate(-70 -1431)">
    <rect id="Rectangle_9032" data-name="Rectangle 9032" width="100" height="100" rx="5" transform="translate(70 1431)" fill="#f4f6fc"/>
    <path id="protocol" d="M37.79,71a3.4,3.4,0,0,1-3.39-3.391v-.8H84.677v.8A3.4,3.4,0,0,1,81.286,71Zm44.843,8.5H79.6l-4.457-5.18a.78.78,0,0,0-.592-.272H44.527a.779.779,0,0,0-.59.272L39.48,79.5H36.444l4.817-6.937H77.816ZM34.4,44.856a3.4,3.4,0,0,1,3.39-3.391h6.653v6.262a.779.779,0,0,0,.394.676l7.223,4.132v6.258H45.133a.78.78,0,1,0,0,1.561h28.81a.78.78,0,1,0,0-1.561H67.016V52.535L74.239,48.4a.779.779,0,0,0,.393-.676V41.465h6.653a3.4,3.4,0,0,1,3.391,3.391v20.4H34.4Zm9.389-9.98a1.436,1.436,0,1,1,1.436,1.436A1.437,1.437,0,0,1,43.788,34.876Zm7.353,6.589H46v5.808L53.228,51.4a.78.78,0,0,1,.393.678v6.711h5.137V49.51l-7.224-4.13a.782.782,0,0,1-.393-.678Zm-.593-12.492a1.436,1.436,0,1,1,1.436,1.435A1.437,1.437,0,0,1,50.548,28.973ZM66.374,41.465H52.7v2.784l6.836,3.909,6.835-3.909Zm1.168,3.915-7.223,4.13v9.283h5.137V52.082a.781.781,0,0,1,.393-.678l7.223-4.131V41.465H67.934V44.7a.78.78,0,0,1-.393.678ZM65.657,28.973a1.435,1.435,0,1,1,1.436,1.435A1.437,1.437,0,0,1,65.657,28.973Zm6.76,5.9a1.435,1.435,0,1,1,1.436,1.436A1.436,1.436,0,0,1,72.417,34.876ZM86.238,67.614V44.856A4.958,4.958,0,0,0,81.286,39.9H74.633V37.769a3,3,0,1,0-1.561,0V39.9H67.934V31.848a3,3,0,1,0-1.561.033V39.9H52.7V31.881a3,3,0,1,0-1.561-.033V39.9H46V37.769a3,3,0,1,0-1.561,0V39.9H37.79a4.958,4.958,0,0,0-4.952,4.952V67.614a4.958,4.958,0,0,0,4.952,4.952H39.36l-5.05,7.274a.781.781,0,0,0,.64,1.225h4.887a.779.779,0,0,0,.592-.272l4.456-5.18h29.3l4.456,5.18a.78.78,0,0,0,.592.272h4.886a.782.782,0,0,0,.641-1.225l-5.049-7.274h1.569a4.957,4.957,0,0,0,4.952-4.952Z" transform="translate(60.662 1427.523)" fill="#105185" stroke="#105185" stroke-width="1" fill-rule="evenodd"/>
  </g>
</svg>
