<svg xmlns="http://www.w3.org/2000/svg" xmlns:xlink="http://www.w3.org/1999/xlink" width="100" height="100" viewBox="0 0 100 100">
  <defs>
    <clipPath id="clip-path">
      <rect id="Rectangle_9189" data-name="Rectangle 9189" width="59.367" height="59.367" fill="#105185"/>
    </clipPath>
  </defs>
  <g id="Group_56463" data-name="Group 56463" transform="translate(-30 -38)">
    <rect id="Rectangle_9032" data-name="Rectangle 9032" width="100" height="100" rx="5" transform="translate(30 38)" fill="#f4f6fc"/>
    <g id="Group_56408" data-name="Group 56408" transform="translate(50 58)" clip-path="url(#clip-path)">
      <path id="Path_164064" data-name="Path 164064" d="M304.057,250.724a1.739,1.739,0,0,1-1.391-.7l-2.957-3.942h-13.16a5.224,5.224,0,0,1-5.218-5.218V230.317a1.739,1.739,0,0,1,3.479,0v10.551a1.741,1.741,0,0,0,1.739,1.739h14.03a1.739,1.739,0,0,1,1.391.7l2.087,2.783,2.087-2.783a1.739,1.739,0,0,1,1.391-.7h3.479a1.741,1.741,0,0,0,1.739-1.739V219.881a1.741,1.741,0,0,0-1.739-1.739H290.028a1.739,1.739,0,0,1,0-3.479h20.987a5.224,5.224,0,0,1,5.218,5.218v20.987a5.224,5.224,0,0,1-5.218,5.218h-2.609l-2.957,3.942a1.739,1.739,0,0,1-1.391.7" transform="translate(-256.865 -195.995)" fill="#105185"/>
      <path id="Path_164065" data-name="Path 164065" d="M419.126,321.651a1.74,1.74,0,0,1-1.628-1.126l-3.055-8.094-3.085,8.1a1.739,1.739,0,1,1-3.251-1.238l4.467-11.728.016-.04a2,2,0,0,1,1.858-1.248h0a2,2,0,0,1,1.858,1.245l.019.047,4.426,11.729a1.74,1.74,0,0,1-1.627,2.354" transform="translate(-372.513 -279.641)" fill="#105185"/>
      <path id="Path_164066" data-name="Path 164066" d="M432.386,412.957h-6.628a1.739,1.739,0,0,1,0-3.479h6.628a1.739,1.739,0,0,1,0,3.479" transform="translate(-387.144 -373.868)" fill="#105185"/>
      <path id="Path_164067" data-name="Path 164067" d="M12.175,89.4a1.74,1.74,0,0,1-1.391-.7L7.827,84.761H5.218A5.224,5.224,0,0,1,0,79.543V58.556a5.224,5.224,0,0,1,5.218-5.218H29.684A5.224,5.224,0,0,1,34.9,58.556V79.543a5.224,5.224,0,0,1-5.218,5.218H16.523L13.566,88.7a1.739,1.739,0,0,1-1.391.7M5.218,56.817a1.741,1.741,0,0,0-1.739,1.739V79.543a1.741,1.741,0,0,0,1.739,1.739H8.7a1.739,1.739,0,0,1,1.391.7l2.087,2.783,2.087-2.783a1.74,1.74,0,0,1,1.391-.7h14.03a1.741,1.741,0,0,0,1.739-1.739V58.556a1.741,1.741,0,0,0-1.739-1.739Z" transform="translate(0 -48.7)" fill="#105185"/>
      <path id="Path_164068" data-name="Path 164068" d="M211.111,245.372a1.734,1.734,0,0,1-1.23-.509l-3.806-3.806a1.739,1.739,0,1,1,2.46-2.46l3.806,3.806a1.739,1.739,0,0,1-1.23,2.969" transform="translate(-187.689 -217.383)" fill="#105185"/>
      <path id="Path_164069" data-name="Path 164069" d="M119.7,160.984a7.687,7.687,0,1,1,7.687-7.687,7.7,7.7,0,0,1-7.687,7.687m0-11.9A4.209,4.209,0,1,0,123.9,153.3a4.213,4.213,0,0,0-4.209-4.209" transform="translate(-102.267 -132.947)" fill="#105185"/>
    </g>
  </g>
</svg>
